<svg width="42" height="40" viewBox="0 0 42 40" fill="none" xmlns="http://www.w3.org/2000/svg">
<path d="M42 4.2V0.6L38.4171 0.2C38.218 0.2 37.0237 0 35.0332 0C26.872 0 20.9005 2.4 17.5166 6.6C14.9289 5 11.346 4 7.16588 4C5.17536 4 3.78199 4.2 3.78199 4.2L0 4.8L0.199052 8.2C0.398104 14.2 3.38389 25.6 13.7346 25.6H14.1327V32.4C6.56872 33.4 0.199052 36 0.199052 36V40H40.0095V36C40.0095 36 33.6398 33.4 26.0758 32.4V26C38.6161 25.8 42 11.6 42 4.2ZM20.1043 32H18.1137V20.8C18.1137 20.8 17.7156 14 12.1422 14C12.1422 14 15.128 15.6 15.9242 21.4C15.128 21.6 14.3318 21.6 13.7346 21.6C4.5782 21.6 4.18009 8.2 4.18009 8.2C4.18009 8.2 5.37441 8 7.16588 8C10.9479 8 17.1185 8.8 18.91 14.2C19.9052 5.2 30.0569 4 35.0332 4C36.8246 4 38.019 4.2 38.019 4.2C38.019 4.2 38.019 22.2 25.4787 22.2H24.0853C24.0853 18.2 28.0664 12.2 28.0664 12.2C22.0948 14.2 22.0948 22 22.0948 22V32H20.1043Z" fill="#65A30D"/>
</svg>
