<svg width="50" height="34" viewBox="0 0 50 34" fill="none" xmlns="http://www.w3.org/2000/svg">
<path d="M0 0H50V34H0V0ZM25 8.5C27.2101 8.5 29.3298 9.39553 30.8926 10.9896C32.4554 12.5837 33.3333 14.7457 33.3333 17C33.3333 19.2543 32.4554 21.4163 30.8926 23.0104C29.3298 24.6045 27.2101 25.5 25 25.5C22.7899 25.5 20.6702 24.6045 19.1074 23.0104C17.5446 21.4163 16.6667 19.2543 16.6667 17C16.6667 14.7457 17.5446 12.5837 19.1074 10.9896C20.6702 9.39553 22.7899 8.5 25 8.5ZM11.1111 5.66667C11.1111 7.16956 10.5258 8.6109 9.48393 9.6736C8.44206 10.7363 7.02898 11.3333 5.55556 11.3333V22.6667C7.02898 22.6667 8.44206 23.2637 9.48393 24.3264C10.5258 25.3891 11.1111 26.8304 11.1111 28.3333H38.8889C38.8889 26.8304 39.4742 25.3891 40.5161 24.3264C41.5579 23.2637 42.971 22.6667 44.4444 22.6667V11.3333C42.971 11.3333 41.5579 10.7363 40.5161 9.6736C39.4742 8.6109 38.8889 7.16956 38.8889 5.66667H11.1111Z" fill="#65A30D"/>
</svg>
