<svg width="43" height="43" viewBox="0 0 43 43" fill="none" xmlns="http://www.w3.org/2000/svg">
<path d="M40.9552 20.2081L35.3444 16.9521C35.8358 16.5221 36.3068 15.9692 36.6549 15.3548C38.3546 12.4265 37.3512 8.65855 34.4024 6.95889C32.6413 5.93499 30.5731 5.93499 28.8325 6.67219L28.853 6.65172L27.0509 7.45035L26.8257 5.48448L26.8052 5.50495C26.6209 3.64146 25.5356 1.83941 23.7745 0.815513C22.3579 0.00610185 20.6791 -0.211333 19.103 0.210488C17.5269 0.632309 16.1811 1.65928 15.3582 3.06808C15.0101 3.68242 14.7848 4.35819 14.662 5.01348L9.03063 1.77797C7.06478 0.65169 4.56651 1.30698 3.44024 3.27286L0.368597 8.59712C0.233671 8.82927 0.146207 9.08592 0.111286 9.35216C0.0763643 9.6184 0.0946798 9.88892 0.16517 10.148C0.23566 10.4071 0.356919 10.6496 0.521908 10.8615C0.686896 11.0733 0.892325 11.2503 1.12627 11.3821L4.6689 13.4299L13.3105 18.4265H0V38.9044C0 39.9906 0.431491 41.0324 1.19955 41.8004C1.96761 42.5685 3.00932 43 4.09552 43H36.8597C39.1327 43 40.9552 41.1775 40.9552 38.9044V28.3993L42.4501 25.7986C43.5764 23.8327 42.9211 21.3344 40.9552 20.2081ZM29.5697 11.2592C30.1226 10.2353 31.3922 9.94866 32.3546 10.5016C33.3376 11.0749 33.6857 12.2831 33.1123 13.307C32.5389 14.3309 31.2898 14.6176 30.3069 14.0647C29.3444 13.4913 28.9963 12.2831 29.5697 11.2592ZM24.7165 15.5596L38.9075 23.7508L36.8597 27.2934L22.6687 19.1023L24.7165 15.5596ZM18.4299 38.9044H4.09552V22.5221H18.4299V38.9044ZM19.1261 17.0545L4.93511 8.86333L6.98287 5.32065L21.1739 13.5118L19.1261 17.0545ZM19.679 7.92135C18.6961 7.34797 18.3684 6.13977 18.9213 5.11587C19.4537 4.09198 20.7438 3.80529 21.7268 4.35819C22.7097 4.93157 23.0373 6.13977 22.4639 7.16366C21.9111 8.18756 20.6619 8.47425 19.679 7.92135ZM22.5254 38.9044V23.7508L36.8597 32.0238V38.9044H22.5254Z" fill="#65A30D"/>
</svg>
