<svg width="34" height="42" viewBox="0 0 34 42" fill="none" xmlns="http://www.w3.org/2000/svg">
<path d="M16.9974 0C20.5181 0 23.3601 2.814 23.3601 6.3C23.3601 9.786 20.5181 12.6 16.9974 12.6C13.4767 12.6 10.6347 9.786 10.6347 6.3C10.6347 2.814 13.4767 0 16.9974 0ZM33.9645 33.6L29.7228 22.176C28.9804 20.097 28.323 18.291 25.481 16.8C22.5753 15.33 20.4544 14.7 16.9974 14.7C13.5827 14.7 11.4618 15.33 8.51377 16.8C5.71418 18.291 5.0567 20.097 4.27197 22.176L0.0301719 33.6C-0.457635 35.973 5.07791 38.724 8.78948 40.299C11.3558 41.412 14.1129 42 16.9974 42C19.9242 42 22.6602 41.412 25.2477 40.299C28.9592 38.724 34.4948 35.973 33.9645 33.6ZM24.2508 32.55L16.9974 39.9L9.74389 32.55C8.98036 31.752 8.51377 30.681 8.51377 29.505C8.51377 27.132 10.4226 25.2 12.7556 25.2C13.9221 25.2 15.0037 25.683 15.7672 26.481L16.9974 27.72L18.2275 26.46C18.991 25.683 20.0727 25.2 21.2392 25.2C23.5934 25.2 25.481 27.132 25.481 29.505C25.481 30.681 25.0144 31.773 24.2508 32.55Z" fill="#65A30D"/>
</svg>
