<svg width="53" height="39" viewBox="0 0 53 39" fill="none" xmlns="http://www.w3.org/2000/svg">
<path d="M33.7273 24.375C27.2227 24.375 14.4545 27.5437 14.4545 34.125V39H53V34.125C53 27.5437 40.2318 24.375 33.7273 24.375ZM33.7273 19.5C36.283 19.5 38.734 18.4728 40.5412 16.6443C42.3484 14.8158 43.3636 12.3359 43.3636 9.75C43.3636 7.16414 42.3484 4.68419 40.5412 2.85571C38.734 1.02723 36.283 0 33.7273 0C31.1716 0 28.7205 1.02723 26.9133 2.85571C25.1062 4.68419 24.0909 7.16414 24.0909 9.75C24.0909 12.3359 25.1062 14.8158 26.9133 16.6443C28.7205 18.4728 31.1716 19.5 33.7273 19.5ZM9.63636 26.8125L8.19091 25.5938C3.37273 20.9625 0 18.0375 0 14.3812C0 11.4562 2.40909 9.01875 5.3 9.01875C6.98636 9.01875 8.67273 9.75 9.63636 10.9688C10.6 9.75 12.2864 9.01875 13.9727 9.01875C16.8636 9.01875 19.2727 11.2125 19.2727 14.3812C19.2727 18.0375 15.9 20.9625 11.0818 25.5938L9.63636 26.8125Z" fill="#65A30D"/>
</svg>
