<svg width="40" height="39" viewBox="0 0 40 39" fill="none" xmlns="http://www.w3.org/2000/svg">
<path d="M28.5714 0C23.3143 0 19.0476 4.26146 19.0476 9.51219C19.0476 14.7629 23.3143 19.0244 28.5714 19.0244C33.8286 19.0244 38.0952 14.7629 38.0952 9.51219C38.0952 4.26146 33.8286 0 28.5714 0ZM28.5714 15.2195C25.4095 15.2195 22.8571 12.6702 22.8571 9.51219C22.8571 6.35415 25.4095 3.80488 28.5714 3.80488C31.7333 3.80488 34.2857 6.35415 34.2857 9.51219C34.2857 12.6702 31.7333 15.2195 28.5714 15.2195ZM34.2857 26.6341H30.4762C30.4762 24.3512 29.0476 22.2966 26.9143 21.4976L15.181 17.122H0V38.0488H11.4286V35.3093L24.7619 39L40 34.2439V32.3415C40 29.1834 37.4476 26.6341 34.2857 26.6341ZM7.61905 34.2439H3.80952V20.9268H7.61905V34.2439ZM24.7048 35.0239L11.4286 31.3902V20.9268H14.4952L25.581 25.0551C26.2286 25.3024 26.6667 25.9302 26.6667 26.6341C26.6667 26.6341 22.8571 26.539 22.2857 26.3488L17.7524 24.8459L16.5524 28.4605L21.0857 29.9634C22.0571 30.2868 23.0667 30.439 24.0952 30.439H34.2857C35.0286 30.439 35.6952 30.8956 36 31.5234L24.7048 35.0239Z" fill="#65A30D"/>
</svg>
