<svg width="48" height="40" viewBox="0 0 48 40" fill="none" xmlns="http://www.w3.org/2000/svg">
<path d="M48 12C48 9.8 44 6 44 6C44 6 40 9.8 40 12C40 13.4 40.8 14.8 42 15.4V24H38V20C38 18.2 36.6 16.6 35 16.2C35.6 15 36 13.8 36 12.2C36 9.6 34.8 7.2 32.6 5.8L24 0L15.4 5.6C13.4 7.2 12 9.6 12 12.2C12 13.6 12.4 15 13.2 16.2C11.4 16.6 10 18.2 10 20V24H6V15.4C7.2 14.8 8 13.4 8 12C8 9.8 4 6 4 6C4 6 0 9.8 0 12C0 13.4 0.8 14.8 2 15.4V40H22V32C22 31 22.8 30 24 30C25.2 30 26 31 26 32V40H46V15.4C47.2 14.8 48 13.4 48 12ZM17.8 9L24 4.8L30.2 9C31.4 9.8 32 10.8 32 12.2C32 14.2 30.2 16 28.2 16H19.8C17.8 16 16 14.2 16 12.2C16 10.8 16.6 9.8 17.8 9ZM42 36H30V32C30 28.8 27.2 26 24 26C20.8 26 18 28.8 18 32V36H6V28H14V20H34V28H42V36Z" fill="#65A30D"/>
</svg>
