<svg width="53" height="26" viewBox="0 0 53 26" fill="none" xmlns="http://www.w3.org/2000/svg">
<path d="M14.4545 16.5455V9.24182C12.72 8.46182 11.1059 7.51636 9.63636 6.40545V16.5455H14.4545ZM9.63636 26H4.81818V21.2727H0V16.5455H4.81818V0H9.63636V3.38C13.9727 7.09091 19.9232 9.45455 26.5 9.45455C33.0768 9.45455 39.0273 7.09091 43.3636 3.38V0H48.1818V16.5455H53V21.2727H48.1818V26H43.3636V21.2727H9.63636V26ZM38.5455 9.24182V16.5455H43.3636V6.40545C41.8941 7.51636 40.28 8.46182 38.5455 9.24182ZM36.1364 16.5455V10.2109C34.5945 10.7545 32.9805 11.1564 31.3182 11.44V16.5455H36.1364ZM28.9091 16.5455V11.7236L26.5 11.8182L24.0909 11.7236V16.5455H28.9091ZM21.6818 16.5455V11.44C20.0195 11.1564 18.4055 10.7545 16.8636 10.2109V16.5455H21.6818Z" fill="#65A30D"/>
</svg>
