<svg width="305" height="335" viewBox="0 0 305 335" fill="none" xmlns="http://www.w3.org/2000/svg">
<mask id="mask0_3_13" style="mask-type:alpha" maskUnits="userSpaceOnUse" x="0" y="0" width="305" height="335">
<rect width="305" height="335" fill="#FFE9EC"/>
</mask>
<g mask="url(#mask0_3_13)">
<path d="M72.6044 98.6117C86.4336 81.8937 66.9159 77.6662 55.4283 77.6422C17.8612 79.118 16.667 108.003 31.0141 117.792C45.3612 127.582 55.3179 119.509 72.6044 98.6117Z" fill="url(#paint0_linear_3_13)"/>
<path d="M386.32 185.901C369.227 132.772 375.209 84.2978 380.337 66.7016C390.593 -9.92669 279.487 -8.22386 193.167 -20.9953C106.846 -33.7666 130.463 78.7132 81.6151 117.848C50.7097 142.608 -3.40536 212.296 48.7289 291.478C100.863 370.661 254.702 340.861 310.255 317.872C365.808 294.884 407.686 252.313 386.32 185.901Z" fill="url(#paint1_linear_3_13)"/>
<g opacity="0.4">
<path d="M133.299 221.483C133.273 221.444 133.234 221.405 133.208 221.366C132.479 220.415 131.619 219.425 130.642 218.395C127.371 214.969 123.554 212.48 119.802 210.839C119.763 210.826 119.723 210.8 119.684 210.787C112.636 207.725 105.887 207.66 103.503 209.94C103.425 210.018 103.333 210.109 103.255 210.2L103.177 210.292C100.91 213.262 101.223 222.799 106.187 231.411L106.278 231.568C107.476 233.613 108.936 235.606 110.682 237.443C119.241 246.407 125.456 245.639 130.642 241.521C130.694 241.482 130.733 241.443 130.785 241.404C130.811 241.378 130.85 241.352 130.876 241.326C130.993 241.235 131.111 241.131 131.228 241.039C131.58 240.74 131.931 240.414 132.283 240.088C133.182 239.228 134.003 238.329 134.693 237.391C137.377 233.756 138.211 229.496 135.006 224.024C134.537 223.19 133.977 222.356 133.299 221.483Z" fill="white"/>
<path d="M125.899 233.691C123.306 229.887 120.57 226.187 117.561 222.734C117.535 222.708 117.509 222.682 117.483 222.643C115.176 219.985 112.701 217.484 110.017 215.177C107.893 213.353 105.639 211.673 103.268 210.187L103.19 210.279C111.346 215.399 117.795 222.63 123.424 230.395C123.45 230.421 123.463 230.46 123.489 230.486C124.74 232.219 125.964 233.991 127.137 235.763C128.218 237.378 129.274 239.007 130.316 240.649C130.472 240.896 130.642 241.144 130.798 241.404C130.824 241.378 130.863 241.352 130.889 241.326C130.628 240.909 130.355 240.479 130.081 240.062C128.739 237.952 127.371 235.854 125.951 233.795C125.938 233.756 125.925 233.717 125.899 233.691Z" fill="white"/>
<path d="M117.43 222.708C117.378 222.76 117.469 222.838 117.522 222.786C117.535 222.773 117.548 222.76 117.561 222.734C119.046 220.91 119.463 218.383 119.723 216.116C119.932 214.357 119.958 212.585 119.815 210.826C119.776 210.813 119.736 210.787 119.697 210.774C119.841 212.454 119.828 214.148 119.645 215.829C119.398 218.161 118.994 220.767 117.482 222.643C117.469 222.669 117.456 222.682 117.43 222.708Z" fill="white"/>
<path d="M123.489 230.369C123.463 230.382 123.45 230.395 123.424 230.408C118.225 233.183 111.672 233.665 106.2 231.398L106.291 231.554C111.776 233.756 118.303 233.261 123.489 230.486C123.502 230.473 123.515 230.473 123.528 230.46C123.593 230.434 123.554 230.33 123.489 230.369Z" fill="white"/>
<path d="M125.847 233.743C125.795 233.795 125.86 233.887 125.912 233.835C125.925 233.822 125.951 233.808 125.964 233.782C129.599 230.59 132.192 226.2 133.312 221.47C133.286 221.431 133.247 221.392 133.221 221.353C132.114 226.082 129.534 230.486 125.899 233.691C125.886 233.704 125.86 233.717 125.847 233.743Z" fill="white"/>
</g>
<g opacity="0.4">
<path d="M164.777 217.965C164.829 217.9 164.868 217.835 164.92 217.783C166.08 216.272 167.422 214.721 168.972 213.093C174.144 207.686 180.164 203.751 186.066 201.171C186.131 201.145 186.196 201.119 186.261 201.093C197.375 196.273 208.032 196.168 211.784 199.751C211.915 199.882 212.045 200.012 212.162 200.168L212.279 200.312C215.849 204.989 215.367 220.037 207.537 233.613L207.394 233.874C205.518 237.105 203.211 240.245 200.449 243.137C186.939 257.286 177.141 256.061 168.959 249.573C168.881 249.508 168.803 249.456 168.738 249.391C168.685 249.352 168.646 249.313 168.594 249.274C168.412 249.117 168.229 248.974 168.047 248.817C167.487 248.335 166.94 247.84 166.392 247.319C164.972 245.964 163.682 244.544 162.575 243.059C158.341 237.339 157.025 230.603 162.08 221.965C162.822 220.675 163.721 219.347 164.777 217.965Z" fill="white"/>
<path d="M176.463 237.235C180.554 231.242 184.88 225.405 189.622 219.946C189.662 219.894 189.701 219.855 189.74 219.803C193.388 215.62 197.283 211.66 201.518 208.025C204.879 205.145 208.423 202.5 212.175 200.155L212.292 200.299C199.433 208.363 189.245 219.79 180.372 232.037C180.333 232.089 180.307 232.141 180.268 232.18C178.287 234.916 176.372 237.704 174.509 240.492C172.815 243.046 171.148 245.613 169.493 248.192C169.246 248.583 168.985 248.987 168.737 249.378C168.685 249.339 168.646 249.3 168.594 249.261C169.011 248.596 169.441 247.932 169.858 247.267C171.982 243.945 174.144 240.636 176.372 237.378C176.385 237.339 176.424 237.287 176.463 237.235Z" fill="white"/>
<path d="M189.818 219.907C189.896 219.998 189.753 220.115 189.675 220.024C189.649 219.998 189.636 219.972 189.61 219.946C187.264 217.067 186.613 213.093 186.196 209.51C185.87 206.735 185.831 203.947 186.066 201.171C186.131 201.145 186.196 201.119 186.261 201.093C186.027 203.751 186.053 206.422 186.339 209.08C186.73 212.754 187.356 216.871 189.74 219.829C189.753 219.842 189.779 219.881 189.818 219.907Z" fill="white"/>
<path d="M180.255 231.984C180.294 231.997 180.32 232.024 180.359 232.037C188.554 236.414 198.899 237.17 207.537 233.613L207.394 233.874C198.743 237.352 188.437 236.571 180.268 232.193C180.242 232.18 180.229 232.167 180.203 232.154C180.085 232.102 180.151 231.932 180.255 231.984Z" fill="white"/>
<path d="M176.542 237.313C176.633 237.391 176.529 237.535 176.437 237.456C176.411 237.43 176.385 237.404 176.359 237.378C170.627 232.336 166.536 225.405 164.777 217.966C164.829 217.9 164.868 217.835 164.92 217.783C166.653 225.236 170.731 232.193 176.463 237.235C176.49 237.261 176.516 237.287 176.542 237.313Z" fill="white"/>
</g>
<path d="M205.961 167.909C205.961 167.909 201.44 168.952 200.632 170.228C199.824 171.518 199.837 179.114 201.987 179.414C204.123 179.713 210.521 175.922 211.016 175.323C211.511 174.749 205.961 167.909 205.961 167.909Z" fill="#F8B499"/>
<path d="M207.016 156.705C207.016 156.705 201.674 157.929 200.71 159.454C199.759 160.978 199.772 169.968 202.299 170.306C204.827 170.658 212.384 166.176 212.983 165.473C213.582 164.782 207.016 156.705 207.016 156.705Z" fill="#F8B499"/>
<path d="M207.016 141.565C207.016 141.565 201.674 142.79 200.71 144.314C199.746 145.839 199.772 154.828 202.299 155.167C204.827 155.519 211.263 151.949 211.85 151.245C212.462 150.555 207.016 141.565 207.016 141.565Z" fill="#F8B499"/>
<path d="M177.858 159.128C178.001 158.138 174.014 146.425 174.991 146.242C180.633 145.213 199.629 130.96 206.938 126.725C212.136 123.716 215.849 127.846 213.231 131.351C206.833 139.897 176.633 167.297 177.858 159.128Z" fill="white"/>
<g opacity="0.3">
<path d="M239.939 282.002C238.571 283.37 237.047 284.594 235.275 285.363C231.783 286.888 227.797 286.458 223.979 286.77C223.823 286.783 223.667 286.796 223.51 286.809C222.142 286.953 220.8 287.2 219.523 287.682C218.585 288.034 217.621 288.594 217.283 289.545C216.879 290.679 217.543 291.943 218.403 292.79C219.263 293.636 220.344 294.262 221.1 295.2C221.491 295.682 221.764 296.242 221.947 296.828H190.417L179.108 293.923C178.34 293.415 177.584 292.894 176.841 292.36C176.216 291.917 175.604 291.448 175.004 290.979C175.004 290.979 174.34 289.728 173.337 287.8C173.232 287.591 173.115 287.383 173.011 287.174C172.92 287.005 172.842 286.835 172.75 286.666C169.285 280.034 163.096 268.074 163.435 267.735C163.721 267.449 169.194 266.302 175.903 264.96C178.027 264.543 180.268 264.1 182.509 263.657C188.724 262.433 194.938 261.234 198.495 260.491C200.254 260.127 201.361 259.879 201.518 259.788C202.169 259.423 202.86 259.11 203.576 258.876C204.345 258.615 205.14 258.42 205.948 258.302C206.39 258.237 206.847 258.198 207.303 258.172C207.719 258.159 208.149 258.159 208.566 258.185C209.074 258.224 209.583 258.289 210.091 258.381C210.729 258.511 211.354 258.693 211.967 258.928C212.332 259.071 212.709 259.241 213.061 259.449C213.27 259.566 213.465 259.684 213.674 259.827C215.12 260.804 216.24 262.237 216.266 263.944C216.266 264.074 216.266 264.205 216.253 264.335C216.175 265.429 215.784 266.55 216.136 267.579C216.696 269.247 218.716 269.703 220.54 269.716C220.761 269.716 220.983 269.716 221.191 269.703C224.553 269.533 227.914 269.051 231.275 269.208C234.637 269.364 238.102 270.263 240.617 272.517C241.659 273.455 242.532 274.654 242.741 276.035C242.741 276.061 242.754 276.087 242.754 276.113C242.754 276.139 242.754 276.165 242.767 276.191C242.962 278.393 241.503 280.438 239.939 282.002Z" fill="#C8E69A"/>
</g>
<path d="M229.621 257.508C229.256 258.915 228.591 260.309 227.849 261.56C226.533 263.801 224.943 265.911 222.898 267.514C217.243 271.931 209.035 271.683 203.159 275.826C202.052 276.608 200.984 277.65 200.866 279.005C200.723 280.621 202 282.041 203.407 282.849C204.814 283.656 206.43 284.112 207.719 285.09C210.364 287.083 211.094 290.979 209.921 294.079C209.53 295.096 208.97 296.021 208.293 296.867H150.823C149.286 296.307 147.761 295.695 146.25 295.043C145.69 294.418 122.929 269.39 123.371 268.647C123.619 268.23 129.352 265.403 129.56 265.299C129.573 265.286 135.723 262.25 154.849 253.117C163.135 249.169 169.91 245.912 170.301 245.534C171.747 244.153 173.441 243.033 175.278 242.225C177.819 241.105 180.737 240.57 183.603 240.935C185.688 241.196 187.929 242.03 189.414 243.541C191.173 245.326 191.043 247.007 191.264 248.7C191.355 249.456 191.525 250.173 191.929 250.798C193.362 253.026 196.697 252.648 199.225 251.866C204.514 250.225 209.674 247.932 215.159 247.384C215.888 247.384 220.826 246.603 225.478 249.026C227.171 249.899 228.839 251.28 229.49 253.091C229.503 253.156 230.337 254.707 229.621 257.508Z" fill="#C8E69A"/>
<path d="M227.028 253.99C226.859 254.016 226.676 254.029 226.507 254.055C222.364 254.55 218.325 255.319 214.403 256.348C214.39 256.348 214.39 256.348 214.377 256.361C213.921 256.478 213.465 256.609 213.009 256.726C207.368 258.302 201.987 260.439 196.932 263.11C195.251 263.996 193.609 264.934 192.007 265.937C191.108 266.497 190.222 267.071 189.349 267.67C184.984 270.628 180.906 274.028 177.167 277.832C174.275 280.764 171.877 283.656 169.923 286.275C169.454 286.913 168.998 287.526 168.581 288.138C168.464 288.308 168.334 288.477 168.216 288.659C165.558 292.516 163.995 295.552 163.357 296.867H162.731C163.409 295.447 165.584 291.122 169.636 285.728C171.565 283.148 173.923 280.321 176.75 277.455C176.854 277.35 176.959 277.246 177.063 277.142C177.428 276.777 177.792 276.412 178.17 276.048C183.694 270.693 189.909 266.185 196.658 262.615C199.003 261.377 201.413 260.257 203.876 259.253C204.397 259.045 204.918 258.837 205.439 258.628C208.136 257.599 210.898 256.7 213.726 255.931C217.686 254.863 221.79 254.068 225.986 253.534C226.311 253.495 226.624 253.456 226.95 253.417C227.106 253.404 227.249 253.508 227.262 253.664C227.289 253.834 227.184 253.977 227.028 253.99Z" fill="#99C251"/>
<path d="M172.985 265.533C172.907 264.335 172.946 263.24 173.05 262.224C173.623 256.882 179.669 256.544 180.698 261.794C180.919 262.902 181.05 264.1 181.076 265.403C181.193 273.194 177.206 277.259 177.206 277.259C177.206 277.259 173.506 273.911 172.985 265.533Z" fill="#99C251"/>
<path d="M233.086 251.28C233.803 251.254 234.467 251.306 235.08 251.384C238.285 251.84 238.363 255.475 235.184 255.983C234.519 256.088 233.79 256.153 233.008 256.14C228.318 256.061 225.96 253.586 225.96 253.586C225.96 253.586 228.044 251.436 233.086 251.28Z" fill="#99C251"/>
<path d="M204.241 250.563C204.501 249.743 204.814 249.013 205.153 248.361C206.938 244.922 211.094 246.277 210.403 250.081C210.26 250.876 210.039 251.723 209.713 252.609C207.745 257.872 204.006 259.566 204.006 259.566C204.006 259.566 202.404 256.335 204.241 250.563Z" fill="#99C251"/>
<path d="M199.433 265.364C200.436 265.468 201.361 265.638 202.195 265.872C206.599 267.084 206.052 272.191 201.505 272.334C200.554 272.36 199.524 272.321 198.43 272.152C191.89 271.188 189.036 267.305 189.036 267.305C189.036 267.305 192.359 264.66 199.433 265.364Z" fill="#99C251"/>
<path d="M220.422 257.482C221.087 257.755 221.673 258.068 222.194 258.407C224.917 260.139 223.484 263.488 220.383 262.641C219.732 262.459 219.041 262.211 218.338 261.872C214.103 259.853 212.983 256.622 212.983 256.622C212.983 256.622 215.771 255.527 220.422 257.482Z" fill="#99C251"/>
<path d="M181.297 284.06C182.626 283.995 183.864 284.06 184.984 284.203C190.938 284.959 191.186 291.695 185.31 292.737C184.072 292.959 182.73 293.089 181.271 293.076C172.581 293.05 168.125 288.529 168.125 288.529C168.125 288.529 171.956 284.49 181.297 284.06Z" fill="#99C251"/>
<path d="M189.583 288.412C189.075 288.138 188.476 287.982 187.916 287.839C186.887 287.578 185.844 287.396 184.789 287.252C181.558 286.809 178.261 286.783 175.004 287.109C172.698 287.343 170.405 287.747 168.151 288.334C168.06 288.36 168.099 288.49 168.19 288.464C174.366 286.848 181.206 286.392 187.473 287.878C188.15 288.034 188.88 288.203 189.492 288.529C189.596 288.568 189.662 288.451 189.583 288.412Z" fill="#C8E69A"/>
<path d="M176.099 257.82C177.219 260.726 177.31 263.866 177.349 266.941C177.402 270.198 177.441 273.442 177.271 276.699C177.271 276.79 177.402 276.79 177.415 276.699C177.597 273.377 177.545 270.054 177.493 266.732C177.454 263.709 177.336 260.635 176.229 257.781C176.203 257.69 176.06 257.729 176.099 257.82Z" fill="#C8E69A"/>
<path d="M189.297 267.409C192.202 266.758 195.212 266.719 198.13 267.318C200.541 267.813 203.42 268.699 204.553 271.097C204.593 271.175 204.71 271.11 204.671 271.031C203.537 268.66 200.736 267.748 198.352 267.227C195.355 266.576 192.241 266.602 189.245 267.266C189.166 267.305 189.206 267.436 189.297 267.409Z" fill="#C8E69A"/>
<path d="M223.015 262.354C221.308 258.745 217.4 256.426 213.413 256.648C213.322 256.648 213.322 256.791 213.413 256.791C217.361 256.57 221.204 258.85 222.898 262.42C222.924 262.511 223.041 262.446 223.015 262.354Z" fill="#C8E69A"/>
<path d="M204.202 259.501C206.625 255.645 207.98 251.189 208.097 246.629C208.097 246.538 207.954 246.538 207.954 246.629C207.837 251.163 206.495 255.592 204.071 259.423C204.032 259.514 204.15 259.579 204.202 259.501Z" fill="#C8E69A"/>
<path d="M226.129 253.794C229.686 252.505 234.155 251.345 237.321 254.146C237.386 254.211 237.49 254.107 237.425 254.042C234.207 251.215 229.699 252.348 226.09 253.651C226.012 253.69 226.051 253.821 226.129 253.794Z" fill="#C8E69A"/>
<path d="M139.345 295.148C137.951 295.747 136.531 296.32 135.097 296.841H81.6796C81.0412 296.06 80.5201 295.2 80.1683 294.262C79.0739 291.382 79.7514 287.76 82.2138 285.91C83.4255 284.998 84.9238 284.581 86.2266 283.826C87.5295 283.07 88.7281 281.754 88.5848 280.256C88.4676 279.005 87.4774 278.028 86.4481 277.311C80.9891 273.468 73.3673 273.689 68.1037 269.585C66.2015 268.1 64.7292 266.133 63.5045 264.061C62.0974 261.664 60.9639 258.745 61.9672 256.166C61.9672 256.153 62.0323 255.996 62.0453 255.983C62.7228 254.381 64.156 253.195 65.7064 252.387C69.4456 250.446 73.9145 250.446 78.0446 251.293C82.1747 252.14 86.0833 253.795 90.0962 255.032C92.4544 255.762 95.5291 256.101 96.8711 254.042C97.6528 252.83 97.4704 251.241 97.7701 249.899C98.4085 246.902 101.574 245.235 104.61 244.857C107.06 244.557 109.639 244.922 112.063 245.938C112.076 245.938 112.141 245.964 112.18 245.99C115.906 247.567 119.111 250.616 120.583 254.511C120.596 254.511 135.879 287.643 139.345 295.148Z" fill="#C8E69A"/>
<path d="M119.463 279.591C119.463 279.591 131.332 200.155 131.501 196.651C131.762 190.996 168.503 198.983 166.353 207.126C162.51 221.666 169.936 279.591 169.936 279.591H119.463Z" fill="white"/>
<path d="M134.941 201.224C134.941 201.224 127.775 196.416 128.857 185.98C129.938 175.544 136.335 167.779 142.25 163.675C151.956 156.939 154.562 156.639 152.543 160.835C151.422 163.167 153.976 173.564 163.252 173.121C170.939 172.756 154.575 211.542 134.941 201.224Z" fill="white"/>
<path d="M130.837 196.807C131.918 198.709 134.146 199.882 136.061 200.768C136.218 200.833 136.348 200.611 136.192 200.546C134.303 199.686 132.114 198.54 131.058 196.677C130.98 196.533 130.759 196.664 130.837 196.807Z" fill="#F18E7B"/>
<path d="M155.761 209.758C158.588 211.464 162.405 211.503 165.598 211.256C165.767 211.243 165.767 210.982 165.598 210.995C162.432 211.243 158.692 211.23 155.891 209.536C155.748 209.445 155.618 209.666 155.761 209.758Z" fill="#F18E7B"/>
<path d="M142.771 150.789C143.97 158.893 140.556 165.525 141.064 167.193C141.586 168.847 144.152 176.208 144.152 176.208C144.152 176.208 129.195 193.55 128.765 188.937C128.205 182.983 128.909 166.463 131.032 161.343C132.804 157.056 133.547 152.757 133.938 149.239C134.394 145.2 134.394 142.203 135.019 141.409C135.071 141.344 135.123 141.291 135.175 141.265C136.609 140.406 141.56 142.568 142.771 150.789Z" fill="white"/>
<path d="M137.429 145.734C137.117 149.395 135.957 149.265 133.938 149.239C133.755 145.252 134.029 142.23 135.019 141.409C135.475 141.344 136.452 141.682 136.713 142.112C137.234 142.946 137.508 144.796 137.429 145.734Z" fill="#F4F4F4"/>
<path d="M109.509 139.298L115.606 137.982C116.284 137.839 116.805 138.49 116.492 139.09L113.652 144.471C113.522 144.705 113.535 144.992 113.652 145.213L116.584 150.307C116.909 150.881 116.401 151.584 115.711 151.506L109.6 150.816C109.327 150.789 109.053 150.881 108.871 151.076L104.584 155.532C104.102 156.027 103.268 155.806 103.164 155.167L102.226 149.356C102.187 149.096 102.017 148.887 101.77 148.783L96.1936 146.451C95.5682 146.19 95.5682 145.343 96.1805 145.018L101.705 142.112C101.952 141.982 102.122 141.748 102.161 141.487L103.008 135.585C103.099 134.92 103.946 134.621 104.428 135.064L108.779 139.077C108.962 139.285 109.235 139.363 109.509 139.298Z" fill="#FFB041"/>
<path d="M105.535 137.539C106.108 137.722 107.919 139.598 108.805 139.819C110.017 140.132 113.939 138.842 114.277 139.259C114.89 139.989 110.082 142.217 108.037 141.774C106.108 141.357 103.841 136.979 105.535 137.539Z" fill="#FFC06E"/>
<path d="M241.034 125.54L246.18 128.888C246.753 129.266 246.662 130.087 246.024 130.282L240.291 132.041C240.044 132.119 239.848 132.315 239.783 132.562L238.259 138.139C238.089 138.764 237.243 138.894 236.813 138.36L233.047 133.618C232.878 133.409 232.617 133.279 232.344 133.292L226.259 133.396C225.582 133.409 225.152 132.667 225.53 132.145L228.943 127.455C229.1 127.247 229.126 126.973 229.021 126.738L226.78 121.227C226.533 120.615 227.119 120.016 227.771 120.224L233.634 122.074C233.894 122.152 234.168 122.113 234.376 121.957L239.08 118.452C239.601 118.061 240.395 118.439 240.422 119.091L240.643 124.927C240.656 125.149 240.799 125.396 241.034 125.54Z" fill="#FFB041"/>
<path d="M239.496 121.54C239.77 122.074 239.718 124.641 240.174 125.409C240.799 126.478 244.421 128.315 244.369 128.849C244.278 129.787 239.392 127.963 238.285 126.23C237.242 124.589 238.715 119.976 239.496 121.54Z" fill="#FFC06E"/>
<path d="M216.853 97.4889C215.485 97.8537 214.13 98.44 213.661 98.2707C212.371 97.7886 212.162 90.6489 210.677 90.9876C209.765 91.1961 209.648 91.4176 209.27 96.6551C209.087 99.1045 206.247 100.121 206.104 101.697C206.104 101.697 207.55 108.498 208.749 109.84C209.609 110.804 218.299 108.915 219.784 107.899C221.23 106.896 220.357 105.801 220.214 105.658C221.582 105.059 221.061 103.026 220.11 102.831C220.11 102.831 221.4 100.368 219.367 99.5866C220.214 98.8179 219.719 96.7333 216.853 97.4889Z" fill="#FFBF61"/>
<path d="M207.003 99.9122L202.847 100.733C202.234 100.85 201.843 101.463 201.974 102.075L203.915 110.531C204.058 111.156 204.697 111.534 205.309 111.351L209.322 110.179C209.504 110.127 209.609 109.944 209.569 109.762L207.381 100.16C207.342 99.9904 207.172 99.8862 207.003 99.9122Z" fill="#7F5AE5"/>
<path d="M183.542 105.767C187.149 102.16 187.149 96.3112 183.542 92.7038C179.934 89.0964 174.086 89.0964 170.478 92.7038C166.871 96.3112 166.871 102.16 170.478 105.767C174.086 109.375 179.934 109.375 183.542 105.767Z" fill="#FFBF61"/>
<path d="M172.112 101.45C172.112 101.45 177.949 100.772 182.248 98.0883C182.248 98.0883 182.861 102.557 178.574 103.977C174.275 105.41 172.112 101.45 172.112 101.45Z" fill="white"/>
<path d="M172.19 97.8407C171.956 97.1241 172.19 96.4076 172.737 96.2252C173.271 96.0428 173.897 96.4857 174.131 97.2023C174.366 97.9189 174.131 98.6355 173.584 98.8179C173.063 98.9873 172.438 98.5573 172.19 97.8407Z" fill="#353659"/>
<path d="M179.503 96.8632C180.036 96.6865 180.275 95.9618 180.037 95.2447C179.799 94.5277 179.174 94.0897 178.641 94.2665C178.109 94.4433 177.87 95.1679 178.108 95.885C178.346 96.6021 178.971 97.04 179.503 96.8632Z" fill="#353659"/>
<path d="M202.977 124.511V214.578C202.977 217.666 200.475 220.154 197.401 220.154H147.488C144.817 220.154 142.576 218.265 142.029 215.751C141.95 215.373 141.898 214.982 141.898 214.578V124.511C141.898 123.963 141.976 123.442 142.12 122.947C142.797 120.628 144.934 118.934 147.475 118.934H197.388C200.475 118.934 202.977 121.436 202.977 124.511Z" fill="#FFEBD9"/>
<path d="M197.388 220.832H147.475C144.035 220.832 141.234 218.031 141.234 214.591V124.511C141.234 121.071 144.035 118.27 147.475 118.27H197.388C200.827 118.27 203.628 121.071 203.628 124.511V214.578C203.641 218.031 200.84 220.832 197.388 220.832ZM147.475 119.599C144.765 119.599 142.563 121.801 142.563 124.511V214.578C142.563 217.288 144.765 219.49 147.475 219.49H197.388C200.098 219.49 202.3 217.288 202.3 214.578V124.511C202.3 121.801 200.098 119.599 197.388 119.599H147.475Z" fill="#353659"/>
<path d="M195.329 158.633C193.401 165.225 186.326 172.873 172.672 178.228V178.28C172.646 178.267 172.62 178.267 172.607 178.254C172.581 178.267 172.568 178.267 172.542 178.28V178.241C147.826 168.548 144.608 151.128 154.562 146.399C155.096 146.151 155.67 145.93 156.269 145.747C164.868 143.233 172.542 154.815 172.542 154.815C172.542 154.815 172.998 154.138 173.806 153.161C174.275 152.587 174.874 151.897 175.578 151.167C178.652 147.975 183.707 144.093 188.958 145.747C194.6 147.532 197.075 152.653 195.329 158.633Z" fill="#FF6A51"/>
<path d="M206.221 141.839C206.221 141.839 200.423 143.519 201.361 149.604C202.299 155.688 211.029 152.991 212.449 150.555C213.869 148.132 210.299 139.989 206.221 141.839Z" fill="white"/>
<path d="M207.303 143.923C206.338 143.962 203.681 144.64 203.681 145.291C203.681 145.943 206.625 148.353 207.003 150.242C207.394 152.131 210.495 148.627 210.716 147.871C211.081 146.594 209.843 143.819 207.303 143.923Z" fill="#F4F4F4"/>
<path d="M209.061 156.04C209.061 156.04 199.785 158.281 201.361 164.743C202.834 170.723 212.553 166.359 214.533 164.352C216.605 162.242 214.911 154.672 209.061 156.04Z" fill="white"/>
<path d="M208.54 158.581C207.576 158.62 203.694 159.779 203.694 160.431C203.694 161.082 206.638 163.492 207.016 165.382C207.407 167.271 211.198 163.414 211.407 162.659C211.771 161.382 211.081 158.476 208.54 158.581Z" fill="#F4F4F4"/>
<path d="M207.68 167.349C207.68 167.349 199.824 169.251 201.166 174.71C202.404 179.765 210.638 176.078 212.306 174.371C214.064 172.587 212.631 166.189 207.68 167.349Z" fill="white"/>
<path d="M207.25 169.499C206.43 169.538 203.146 170.515 203.146 171.062C203.146 171.609 205.635 173.655 205.961 175.244C206.286 176.847 209.491 173.577 209.674 172.938C209.973 171.87 209.387 169.408 207.25 169.499Z" fill="#F4F4F4"/>
<path d="M175.421 296.841H109.04C109.509 288.216 111.554 253.443 113.378 245.052C115.437 235.593 125.091 235.711 125.091 235.711L127.984 221.561C127.984 221.561 143.253 228.636 165.207 223.047L166.119 236.453C166.119 236.453 171.33 233.874 176.503 238.46C181.649 243.046 175.421 296.841 175.421 296.841Z" fill="#7F5AE5"/>
<path d="M125.078 234.968C125.078 234.968 130.746 234.33 133.091 237.17C135.436 240.023 146.38 234.812 152.022 237.847C157.663 240.883 166.093 235.724 166.093 235.724L165.936 233.509C165.936 233.509 158.927 236.896 155.696 235.763C152.465 234.629 139.605 237.235 137.351 236.154C135.097 235.072 125.56 232.61 125.56 232.61L125.078 234.968Z" fill="#FFA051"/>
<path d="M141.494 237.417C138.25 237.235 135.215 238.694 132.804 240.792C130.055 243.189 128.205 246.368 126.511 249.56C125.469 251.514 124.466 253.482 123.306 255.371C123.254 255.462 123.398 255.54 123.45 255.449C125.899 251.462 127.632 247.007 130.589 243.332C133.234 240.049 137.117 237.339 141.494 237.574C141.599 237.587 141.599 237.43 141.494 237.417Z" fill="white"/>
<path d="M152.009 237.704C155.044 240.336 156.269 244.297 157.337 248.036C157.363 248.114 157.468 248.114 157.494 248.036C157.832 247.098 158.275 246.212 158.823 245.365C158.875 245.274 158.744 245.196 158.679 245.287C158.132 246.134 157.689 247.033 157.337 247.997C157.389 247.997 157.442 247.997 157.494 247.997C156.425 244.231 155.175 240.245 152.113 237.587C152.035 237.522 151.93 237.639 152.009 237.704Z" fill="white"/>
<path d="M166.054 235.593C165.207 236.167 164.881 237.183 164.659 238.147C164.36 239.424 164.308 240.727 164.477 242.03C164.49 242.134 164.659 242.134 164.646 242.03C164.503 240.909 164.516 239.776 164.725 238.655C164.92 237.613 165.22 236.362 166.145 235.75C166.223 235.672 166.145 235.541 166.054 235.593Z" fill="white"/>
<path d="M131.632 251.775C133.078 248.375 134.576 244.922 137.156 242.199C137.104 242.186 137.065 242.16 137.013 242.147C137.182 243.762 137.56 245.339 138.159 246.863C138.198 246.954 138.355 246.915 138.315 246.824C137.729 245.326 137.338 243.762 137.182 242.16C137.169 242.095 137.091 242.043 137.039 242.108C134.459 244.844 132.948 248.309 131.488 251.723C131.449 251.788 131.593 251.866 131.632 251.775Z" fill="white"/>
<path d="M128.192 238.942C129.378 238.89 130.55 238.929 131.723 239.085C131.71 239.033 131.697 238.981 131.684 238.929C130.759 239.476 129.834 240.023 128.909 240.57C128.818 240.622 128.896 240.766 128.987 240.714C129.912 240.166 130.837 239.619 131.762 239.072C131.84 239.033 131.801 238.929 131.723 238.916C130.55 238.759 129.378 238.707 128.192 238.772C128.088 238.785 128.088 238.942 128.192 238.942Z" fill="white"/>
<path d="M152.53 241.587C152.334 240.805 151.969 240.127 151.422 239.541C151.37 239.489 151.279 239.528 151.279 239.593C151.331 241.743 150.914 243.841 150.028 245.795C149.989 245.886 150.119 245.977 150.172 245.873C151.071 243.893 151.5 241.769 151.435 239.593C151.383 239.606 151.344 239.632 151.292 239.645C151.826 240.219 152.178 240.87 152.36 241.626C152.399 241.73 152.556 241.691 152.53 241.587Z" fill="white"/>
<path d="M166.783 239.268C167.291 242.147 168.36 244.896 169.962 247.345C170.014 247.437 170.158 247.345 170.106 247.267C168.516 244.818 167.448 242.095 166.953 239.228C166.926 239.124 166.77 239.163 166.783 239.268Z" fill="white"/>
<path opacity="0.8" d="M191.681 152.613C191.29 150.685 188.919 145.956 185.154 148.262C181.388 150.568 192.489 156.639 191.681 152.613Z" fill="white"/>
<path d="M231.914 159.401L232.917 155.584L223.432 157.2L232.148 164.066L235.77 161.343L231.914 159.401Z" fill="#E9E9E9"/>
<path d="M235.432 158.411L223.432 157.2L246.167 167.74L235.432 158.411Z" fill="white"/>
<path d="M223.432 157.2L232.917 155.584L236.33 150.281L223.432 157.2Z" fill="white"/>
<path d="M236.461 156.496C243.236 156.626 249.177 162.19 250.402 168.743C251.704 175.752 247.848 183.088 241.894 186.749C238.624 188.755 234.793 189.745 230.963 189.784C229.047 189.81 227.145 189.602 225.282 189.172C223.458 188.755 221.595 188.169 219.992 187.192C218.455 186.254 217.178 184.794 217.139 182.905C217.1 181.042 218.351 179.374 220.331 179.505C222.259 179.622 223.888 181.12 225.048 182.553C226.194 183.974 227.067 185.628 227.614 187.374C228.709 190.827 228.552 194.631 227.002 197.914C225.53 201.028 222.963 203.608 219.849 205.08C219.054 205.458 218.221 205.758 217.374 205.979C217.269 206.005 217.322 206.161 217.413 206.135C220.918 205.21 223.992 202.982 226.012 199.986C228.083 196.924 228.878 193.198 228.292 189.55C227.732 186.006 225.803 182.032 222.611 180.13C221.256 179.322 219.471 178.945 218.155 180.026C217.074 180.925 216.787 182.514 217.087 183.83C217.895 187.491 222.715 188.833 225.868 189.472C229.868 190.279 234.09 190.097 237.946 188.781C245.099 186.345 250.571 179.635 250.805 171.974C251.014 164.939 245.972 158.138 239.014 156.626C238.181 156.444 237.321 156.353 236.461 156.34C236.357 156.34 236.357 156.496 236.461 156.496Z" fill="#FFC290"/>
<path d="M122.03 124.732L122.446 128.211L130.941 129.396L126.759 123.247L125.169 125.852L122.03 124.732Z" fill="#E9E9E9"/>
<path d="M130.941 129.396L123.841 123.364L112.896 122.374L130.941 129.396Z" fill="white"/>
<path d="M130.941 129.396L127.892 118.504L126.759 123.247L130.941 129.396Z" fill="white"/>
<path d="M115.137 106.778C114.134 109.866 114.121 113.241 115.424 116.237C116.61 118.947 118.759 121.214 121.534 122.296C121.626 122.335 121.652 122.191 121.574 122.152C116.636 120.224 114.043 114.791 114.642 109.684C114.994 106.739 116.258 103.938 118.095 101.632C119.736 99.5735 121.912 97.7886 124.531 97.2154C124.909 97.1372 125.287 97.0851 125.678 97.059C125.691 97.0069 125.717 96.9548 125.73 96.9027C120.675 97.1632 116.61 102.297 115.137 106.778Z" fill="#FFC290"/>
<path d="M131.15 90.4795C136.387 86.8706 143.318 86.8836 148.791 90.0105C148.869 90.0626 148.947 89.9323 148.869 89.8932C143.527 86.8445 136.752 86.7012 131.527 90.0626C129.195 91.5609 127.202 93.6846 126.029 96.2122C125.925 96.4337 125.834 96.6682 125.743 96.9027C125.795 96.9027 125.847 96.9027 125.899 96.9027C125.964 96.7203 126.042 96.5509 126.108 96.3815C127.176 93.9973 129 91.9518 131.15 90.4795Z" fill="#FFC290"/>
<path d="M131.567 99.6126C132.4 100.824 132.609 102.401 131.475 103.495C130.459 104.472 128.909 104.694 127.658 104.042C125.078 102.687 124.961 99.5084 125.834 97.059C125.782 97.059 125.73 97.059 125.678 97.072C124.857 99.3911 124.922 102.166 127.02 103.808C127.918 104.511 129.065 104.772 130.159 104.433C131.241 104.108 132.205 103.248 132.387 102.088C132.804 99.4433 129.873 97.489 127.632 97.046C127.033 96.9287 126.446 96.8896 125.873 96.9027C125.86 96.9548 125.834 97.0069 125.821 97.059C128.01 96.9417 130.303 97.7756 131.567 99.6126Z" fill="#FFC290"/>
<path d="M125.665 97.0467C125.717 97.0467 125.769 97.0467 125.822 97.0336C125.835 96.9813 125.861 96.9289 125.874 96.8766C125.822 96.8766 125.769 96.8766 125.717 96.8766C125.704 96.942 125.691 96.9944 125.665 97.0467Z" fill="#FFC290"/>
<path d="M157.051 107.472C157.549 104.083 155.207 100.932 151.818 100.433C148.43 99.9347 145.279 102.277 144.78 105.666C144.281 109.054 146.624 112.205 150.012 112.704C153.401 113.203 156.552 110.86 157.051 107.472Z" fill="#FFBF61"/>
<path d="M149.155 104.551C149.273 105.437 148.83 106.713 147.488 108.055C147.488 108.055 147.488 108.055 147.475 108.055C147.475 108.055 147.475 108.055 147.462 108.068C144.022 108.212 142.732 106.309 143.67 105.228C143.722 105.176 143.774 105.111 143.84 105.059C144.726 104.316 146.237 105.28 146.237 105.28C146.237 105.28 146.25 105.176 146.302 105.02C146.328 104.928 146.367 104.811 146.406 104.694C146.602 104.16 147.006 103.43 147.709 103.352C148.491 103.274 149.051 103.743 149.155 104.551Z" fill="#F55A4B"/>
<path d="M156.008 101.541C156.126 102.427 155.683 103.704 154.341 105.046C154.341 105.046 154.341 105.046 154.328 105.046C154.328 105.046 154.328 105.046 154.315 105.059C150.875 105.202 149.585 103.3 150.523 102.218C150.575 102.166 150.628 102.101 150.693 102.049C151.579 101.306 153.09 102.271 153.09 102.271C153.09 102.271 153.103 102.166 153.155 102.01C153.181 101.919 153.22 101.802 153.259 101.684C153.455 101.15 153.859 100.421 154.562 100.342C155.344 100.251 155.904 100.733 156.008 101.541Z" fill="#F55A4B"/>
<path d="M148.452 108.433C148.452 108.433 151.696 107.756 153.963 106.01C153.963 106.01 154.575 108.537 152.243 109.567C149.898 110.596 148.452 108.433 148.452 108.433Z" fill="white"/>
<path d="M252.843 184.725C255.233 181.706 254.723 177.322 251.704 174.933C248.686 172.543 244.302 173.053 241.912 176.072C239.523 179.09 240.033 183.474 243.051 185.864C246.07 188.253 250.454 187.743 252.843 184.725Z" fill="#FFBF61"/>
<path d="M247.535 177.407C246.936 178.215 245.581 178.892 243.444 178.931V178.944C243.444 178.944 243.444 178.944 243.431 178.931H243.418V178.918C240.539 176.339 240.982 173.798 242.584 173.655C242.675 173.642 242.754 173.642 242.845 173.655C244.148 173.746 244.604 175.713 244.604 175.713C244.604 175.713 244.695 175.648 244.864 175.557C244.955 175.505 245.073 175.44 245.203 175.375C245.789 175.101 246.675 174.827 247.301 175.309C247.991 175.857 248.069 176.677 247.535 177.407Z" fill="#F55A4B"/>
<path d="M255.418 180.339C254.818 181.146 253.463 181.824 251.326 181.863V181.876C251.326 181.876 251.326 181.876 251.313 181.863H251.3V181.85C248.421 179.27 248.864 176.73 250.467 176.586C250.558 176.573 250.636 176.573 250.727 176.586C252.03 176.678 252.486 178.645 252.486 178.645C252.486 178.645 252.577 178.58 252.747 178.489C252.838 178.436 252.955 178.371 253.085 178.306C253.672 178.033 254.558 177.759 255.183 178.241C255.874 178.788 255.952 179.609 255.418 180.339Z" fill="#F55A4B"/>
<path d="M243.913 179.987C243.913 179.987 247.066 181.98 250.258 182.345C250.258 182.345 248.76 184.86 246.076 183.869C243.379 182.866 243.913 179.987 243.913 179.987Z" fill="white"/>
<path d="M254.649 293.454C254.662 294.027 254.675 294.587 254.675 295.096C254.675 295.408 254.453 295.669 254.154 295.734C253.385 295.89 252.59 295.877 251.796 295.864C249.242 295.825 246.688 295.773 244.135 295.734C243.874 295.734 243.574 295.708 243.431 295.447C243.34 295.278 243.353 295.083 243.444 294.913C243.627 294.574 243.978 294.431 244.317 294.301C245.972 293.688 247.77 293.063 249.02 291.877C249.06 291.838 249.099 291.799 249.138 291.76C249.398 291.5 249.633 291.2 249.841 290.874C249.998 290.627 250.128 290.353 250.206 290.066C250.232 289.962 250.258 289.871 250.258 289.767C250.258 289.728 250.271 289.689 250.271 289.65L251.17 289.61L251.431 289.597L254.909 289.441C254.675 290.327 254.623 291.356 254.623 292.399C254.623 292.75 254.636 293.102 254.649 293.454Z" fill="#2A2C4B"/>
<path d="M258.896 259.892C258.896 259.892 255.379 267.8 255.287 271.748C255.196 275.774 255.887 289.441 255.887 289.441C255.887 289.441 255.261 290.275 252.708 290.496C250.493 290.692 249.594 290.236 249.594 290.236C249.594 290.236 247.04 275.839 246.636 270.497C246.206 264.661 248.89 247.411 248.89 247.411L259.978 246.095L258.896 259.892Z" fill="#7670E3"/>
<path d="M278.974 290.627C279.208 291.148 279.43 291.656 279.625 292.138C279.742 292.425 279.638 292.75 279.377 292.92C278.726 293.35 277.983 293.649 277.254 293.936C274.87 294.861 272.498 295.799 270.114 296.724C269.866 296.815 269.593 296.92 269.358 296.724C269.215 296.607 269.15 296.411 269.163 296.216C269.202 295.838 269.476 295.565 269.749 295.317C271.052 294.118 272.472 292.868 273.176 291.291C273.202 291.239 273.215 291.187 273.241 291.135C273.384 290.783 273.488 290.431 273.554 290.053C273.606 289.754 273.619 289.454 273.58 289.168C273.567 289.063 273.554 288.972 273.515 288.868C273.501 288.829 273.488 288.79 273.475 288.751L274.296 288.373L274.531 288.269L277.697 286.796C277.814 287.708 278.153 288.685 278.557 289.637C278.7 289.988 278.843 290.314 278.974 290.627Z" fill="#2A2C4B"/>
<path d="M267.912 246.081C267.912 246.081 269.906 266.628 271.326 270.315C272.772 274.067 279.182 287.057 279.182 287.057C279.182 287.057 278.648 288.386 276.55 289.441C274.765 290.34 273.358 290.014 273.358 290.014C273.358 290.014 265.241 277.233 262.844 272.439C260.225 267.201 256.147 250.238 256.147 250.238L260.225 243.046L267.912 246.081Z" fill="#7670E3"/>
<path d="M240.643 225.744C240.643 225.744 245.229 215.816 249.034 214.435C251.209 213.64 256.942 217.913 254.115 222.734C249.646 230.343 240.643 225.744 240.643 225.744Z" fill="#FF6A51"/>
<path d="M268.707 246.316C268.707 246.316 268.889 247.41 259.04 248.023C252.03 248.453 248.877 247.319 248.877 247.319C248.317 244.687 247.783 239.958 246.714 233.483C245.985 229.066 245.842 223.776 245.711 217.861C245.711 217.64 248.03 217.679 248.082 217.496C248.63 215.412 250.063 215.216 254.401 216.05C261.137 217.353 269.345 220.545 269.345 220.545C269.345 220.545 267.99 228.623 267.886 237.326C267.847 240.179 268.368 243.593 268.707 246.316Z" fill="#FF6A51"/>
<path d="M250.48 235.32C250.792 237.626 252.929 239.241 255.235 238.929C255.235 238.929 258.401 239.632 262.245 238.16C274.426 233.483 280.719 229.965 266.661 215.464C262.753 211.425 252.043 212.324 248.069 214.995C246.141 216.298 254.284 219.151 255.965 220.754L264.733 229.105L254.089 230.564C251.783 230.877 250.167 233.014 250.48 235.32Z" fill="#FF6A51"/>
<path d="M251.222 202.54L249.685 201.237C249.685 201.237 248.604 204.989 249.242 206.005C249.88 207.021 251.222 202.54 251.222 202.54Z" fill="#262F36"/>
<path d="M255.548 210.539C256.721 211.204 258.023 209.81 259.847 205.106C261.463 200.937 257.424 200.103 257.424 200.103C256.89 200.233 253.984 209.666 255.548 210.539Z" fill="#262F36"/>
<path d="M253.75 215.79C256.629 215.829 257.411 214.37 257.203 213.484C256.356 209.979 256.095 208.116 256.095 208.103L255.027 208.702L254.766 208.819L252.538 209.875C252.538 209.875 252.538 210.031 252.551 210.279C252.551 210.461 252.551 210.709 252.551 210.969C252.551 211.204 252.538 211.464 252.538 211.725C252.538 211.751 252.538 211.764 252.538 211.79C252.525 212.129 252.512 212.467 252.473 212.767C252.447 213.093 252.395 213.392 252.343 213.601C252.33 213.64 252.317 213.666 252.317 213.705C252.108 214.304 250.988 215.764 253.75 215.79Z" fill="white"/>
<path d="M252.33 213.627C253.268 213.419 255.092 211.946 255.209 209.927C255.209 209.901 254.896 210.07 254.896 210.044C254.896 210.044 254.792 210.122 254.636 210.253C254.154 210.63 253.124 211.399 252.525 211.751C252.525 211.777 252.525 211.79 252.525 211.816C252.512 212.155 252.499 212.493 252.46 212.793C252.434 213.119 252.382 213.405 252.33 213.627Z" fill="#D3D3D3"/>
<path d="M251.34 212.077C255.626 212.689 256.421 207.595 256.421 207.595C257.88 199.595 250.74 200.129 249.516 204.077C248.161 208.402 247.118 211.464 251.34 212.077Z" fill="white"/>
<path d="M253.607 211.946C254.597 211.347 255.274 210.461 255.848 209.471C255.874 209.432 255.808 209.406 255.782 209.445C255.209 210.422 254.545 211.295 253.568 211.894C253.528 211.907 253.568 211.959 253.607 211.946Z" fill="#D3D3D3"/>
<path d="M250.884 208.09C250.831 208.207 250.727 208.389 250.805 208.52C250.871 208.637 251.066 208.637 251.183 208.689C251.235 208.715 251.274 208.624 251.222 208.598C251.144 208.572 251.027 208.559 250.962 208.52C250.805 208.415 250.949 208.194 251.001 208.077C251.092 207.842 251.209 207.621 251.314 207.386C251.457 207.047 251.6 206.683 251.496 206.318C251.483 206.253 251.392 206.292 251.405 206.357C251.561 206.93 251.092 207.569 250.884 208.09Z" fill="#D3D3D3"/>
<path d="M253.02 206.422C253.502 206.578 253.906 206.67 253.984 206.422C254.063 206.188 253.763 205.771 253.294 205.614C252.812 205.458 252.33 205.601 252.252 205.836C252.173 206.07 252.551 206.253 253.02 206.422Z" fill="#D3D3D3"/>
<path d="M250.363 205.901C250.897 205.979 251.34 205.979 251.379 205.732C251.418 205.484 251.014 205.132 250.48 205.067C249.946 204.989 249.464 205.223 249.437 205.471C249.385 205.719 249.815 205.836 250.363 205.901Z" fill="#D3D3D3"/>
<path d="M252.538 207.816C252.695 207.842 252.851 207.699 252.89 207.477C252.929 207.256 252.851 207.06 252.695 207.021C252.538 206.995 252.382 207.139 252.343 207.36C252.304 207.582 252.382 207.79 252.538 207.816Z" fill="#262F36"/>
<path d="M250.506 207.256C250.662 207.282 250.818 207.139 250.858 206.917C250.897 206.696 250.818 206.5 250.662 206.461C250.506 206.435 250.349 206.578 250.31 206.8C250.271 207.021 250.362 207.217 250.506 207.256Z" fill="#262F36"/>
<path d="M249.698 202.878C249.88 203.074 250.167 203.087 250.428 203.1C251.757 203.165 253.085 203.295 254.388 203.504C254.662 203.543 254.988 203.621 255.105 203.894C255.17 204.025 255.17 204.168 255.183 204.311C255.209 205.262 254.988 206.631 255.366 206.722L256.056 207.543C256.421 207.712 256.89 207.36 257.02 206.93C257.15 206.5 257.046 206.044 256.929 205.64C256.89 205.523 256.851 205.406 256.851 205.289C256.851 205.08 256.942 204.872 257.033 204.663C257.476 203.673 257.828 202.631 258.089 201.588C258.167 201.263 258.232 200.898 258.102 200.624C258.023 200.455 257.88 200.351 257.737 200.246C257.307 199.947 256.825 199.751 256.304 199.686C255.965 199.647 255.613 199.647 255.326 199.465C255.157 199.36 255.04 199.204 254.857 199.113C254.467 198.918 253.984 199.178 253.555 199.321C253.164 199.452 252.734 199.491 252.395 199.282C252.239 199.191 252.121 199.048 251.965 198.97C251.561 198.748 251.014 198.918 250.649 199.256C250.284 199.608 250.063 200.09 249.893 200.585C249.75 201.015 249.633 201.445 249.555 201.888C249.49 202.214 249.463 202.631 249.698 202.878Z" fill="#262F36"/>
<path d="M256.447 208.65C257.124 208.272 257.424 207.543 257.124 207.008C256.825 206.474 256.043 206.344 255.365 206.722C254.688 207.1 254.388 207.829 254.688 208.363C254.975 208.898 255.769 209.028 256.447 208.65Z" fill="white"/>
<path d="M255.157 208.806C255.105 208.793 255.092 208.885 255.144 208.898C255.626 208.976 256.173 208.872 256.603 208.637C256.981 208.429 257.164 208.038 257.268 207.621C257.281 207.569 257.19 207.556 257.177 207.608C257.072 208.051 256.864 208.429 256.434 208.611C256.043 208.78 255.6 208.872 255.157 208.806Z" fill="#D3D3D3"/>
<path d="M255.639 207.373C255.548 207.438 255.405 207.556 255.405 207.686C255.405 207.738 255.431 207.764 255.444 207.803C255.522 207.933 255.535 208.064 255.457 208.207C255.431 208.259 255.522 208.298 255.548 208.246C255.6 208.142 255.626 208.012 255.587 207.894C255.574 207.855 255.548 207.816 255.535 207.79C255.483 207.634 255.574 207.543 255.678 207.464C255.743 207.412 255.691 207.334 255.639 207.373Z" fill="#D3D3D3"/>
<path d="M255.235 206.865C255.326 206.774 255.431 206.709 255.561 206.67C255.6 206.657 255.574 206.591 255.535 206.604C255.405 206.657 255.287 206.722 255.183 206.826C255.157 206.852 255.209 206.891 255.235 206.865Z" fill="#D3D3D3"/>
<path d="M252.343 209.249C252.291 209.406 252.213 209.601 252.108 209.718C251.965 209.888 251.743 210.031 251.418 210.044C251.053 210.057 250.805 209.94 250.61 209.784C250.506 209.692 250.402 209.536 250.323 209.406C250.297 209.354 250.297 209.301 250.323 209.249C250.349 209.197 250.415 209.171 250.48 209.171C250.493 209.171 250.519 209.171 250.532 209.184C250.545 209.184 250.545 209.184 250.558 209.184C250.584 209.184 250.61 209.197 250.636 209.197C250.649 209.197 250.662 209.197 250.662 209.197C250.753 209.21 250.845 209.21 250.949 209.223C250.988 209.223 251.014 209.223 251.053 209.223C251.066 209.223 251.092 209.223 251.105 209.223C251.118 209.223 251.144 209.223 251.157 209.223C251.17 209.223 251.196 209.223 251.209 209.223C251.222 209.223 251.248 209.223 251.261 209.223C251.287 209.223 251.314 209.223 251.34 209.223C251.366 209.223 251.379 209.223 251.405 209.223C251.457 209.223 251.509 209.21 251.548 209.21C251.561 209.21 251.587 209.21 251.6 209.197C251.665 209.184 251.73 209.171 251.809 209.158C251.835 209.158 251.874 209.145 251.9 209.145C251.926 209.145 251.952 209.132 251.978 209.132C251.991 209.132 252.004 209.132 252.004 209.119C252.03 209.119 252.043 209.106 252.069 209.106C252.095 209.093 252.121 209.093 252.16 209.08C252.213 209.067 252.265 209.08 252.304 209.119C252.343 209.158 252.356 209.21 252.343 209.249Z" fill="#262F36"/>
<path d="M252.317 209.132C252.043 209.341 251.613 209.575 251.183 209.523C250.845 209.471 250.545 209.367 250.336 209.275C250.362 209.223 250.428 209.197 250.493 209.197C250.506 209.197 250.532 209.197 250.545 209.21C250.558 209.21 250.558 209.21 250.571 209.21C250.597 209.21 250.623 209.223 250.649 209.223C250.662 209.223 250.675 209.223 250.675 209.223C250.766 209.236 250.858 209.236 250.962 209.249C251.001 209.249 251.027 209.249 251.066 209.249C251.079 209.249 251.105 209.249 251.118 209.249C251.131 209.249 251.157 209.249 251.17 209.249C251.183 209.249 251.209 209.249 251.222 209.249C251.235 209.249 251.261 209.249 251.274 209.249C251.301 209.249 251.327 209.249 251.353 209.249C251.379 209.249 251.392 209.249 251.418 209.249C251.47 209.249 251.522 209.236 251.561 209.236C251.574 209.236 251.6 209.236 251.613 209.223C251.678 209.21 251.744 209.197 251.822 209.184C251.848 209.184 251.887 209.171 251.913 209.171C251.939 209.171 251.965 209.158 251.991 209.158C252.004 209.158 252.017 209.158 252.017 209.145C252.043 209.145 252.056 209.132 252.082 209.132C252.108 209.119 252.134 209.119 252.173 209.106C252.239 209.067 252.291 209.093 252.317 209.132Z" fill="white"/>
<path d="M252.108 209.731C251.965 209.901 251.743 210.044 251.418 210.057C251.053 210.07 250.805 209.953 250.61 209.797C250.766 209.718 251.066 209.614 251.405 209.653C251.418 209.653 251.9 209.445 252.108 209.731Z" fill="#E55A4D"/>
<path d="M261.033 237.9C261.255 237.978 261.45 238.004 261.619 237.965C261.658 237.952 261.711 237.939 261.75 237.913C261.997 237.782 262.101 237.47 262.101 237.053C262.088 236.284 261.671 235.137 260.942 233.965C260.694 233.574 260.434 233.222 260.173 232.91C259.209 231.75 258.18 231.086 257.633 231.385C256.942 231.763 257.281 233.535 258.427 235.333C259.248 236.649 260.264 237.613 261.033 237.9Z" fill="#262F36"/>
<path d="M258.062 231.216C259.235 230.877 260.368 230.473 261.489 230.03C263.469 229.248 265.411 228.35 267.339 227.424C267.391 227.398 267.365 227.307 267.3 227.333C264.277 228.779 261.241 230.187 258.023 231.125C257.971 231.138 258.01 231.229 258.062 231.216Z" fill="white"/>
<path d="M266.466 227.711C266.505 227.763 266.583 227.698 266.544 227.659C265.997 226.942 265.45 226.226 264.916 225.509C264.876 225.457 264.798 225.522 264.837 225.561C265.385 226.278 265.919 226.994 266.466 227.711Z" fill="white"/>
<path d="M249.242 219.698L259.001 220.154C260.095 220.206 260.642 221.483 259.939 222.317L253.646 229.783C253.372 230.108 253.268 230.564 253.385 230.981L255.965 240.401C256.251 241.456 255.209 242.381 254.206 241.964L245.164 238.29C244.76 238.121 244.304 238.173 243.952 238.408L235.796 243.775C234.884 244.375 233.686 243.671 233.764 242.577L234.467 232.831C234.493 232.401 234.311 231.984 233.972 231.711L226.351 225.613C225.504 224.936 225.803 223.568 226.859 223.307L236.344 220.962C236.76 220.858 237.112 220.558 237.256 220.154L240.708 211.021C241.099 210.005 242.48 209.862 243.053 210.787L248.213 219.086C248.421 219.438 248.812 219.672 249.242 219.698Z" fill="#FFB041"/>
<path d="M260.121 234.173C260.303 233.821 259.118 232.388 258.297 231.958C257.476 231.528 255.822 230.629 255.665 230.799C254.831 231.698 256.812 232.818 257.633 233.248C258.453 233.678 259.939 234.525 260.121 234.173Z" fill="white"/>
<path d="M253.724 235.698C255.379 235.437 255.821 235.046 255.769 234.655C255.704 234.264 255.17 234.017 253.515 234.264C251.861 234.525 249.333 234.968 249.424 235.619C249.503 236.18 252.069 235.945 253.724 235.698Z" fill="white"/>
<path d="M254.714 237.079C256.525 236.805 257.007 236.401 256.942 235.997C256.877 235.606 256.304 235.359 254.493 235.645C252.682 235.919 249.932 236.414 250.024 237.066C250.115 237.626 252.903 237.352 254.714 237.079Z" fill="white"/>
<path d="M255.965 238.095C257.632 237.73 258.075 237.352 257.997 237.013C257.919 236.675 257.372 236.518 255.704 236.883C254.037 237.248 251.483 237.86 251.613 238.408C251.704 238.89 254.284 238.46 255.965 238.095Z" fill="white"/>
<path d="M255.926 234.173C257.763 234.069 258.284 233.717 258.258 233.313C258.232 232.909 257.672 232.623 255.848 232.727C254.011 232.831 251.222 233.066 251.261 233.717C251.288 234.291 254.089 234.291 255.926 234.173Z" fill="white"/>
<path d="M255.678 238.551L258.805 238.277C260.121 238.095 261.033 236.805 260.851 235.398L260.772 234.825C260.629 233.743 259.496 232.48 258.44 232.037L254.102 233.743C253.568 233.821 253.19 234.343 253.268 234.929L254.453 237.326C254.519 237.886 255.131 238.629 255.678 238.551Z" fill="white"/>
<path d="M253.555 235.802C253.828 235.789 254.102 235.776 254.388 235.763C254.454 235.763 254.454 235.659 254.375 235.659C254.102 235.672 253.828 235.685 253.541 235.698C253.489 235.698 253.489 235.802 253.555 235.802Z" fill="#D3D3D3"/>
<path d="M254.089 237.274C254.258 237.248 254.414 237.222 254.584 237.196C254.649 237.196 254.649 237.092 254.571 237.092C254.401 237.105 254.232 237.131 254.076 237.17C254.024 237.183 254.024 237.287 254.089 237.274Z" fill="#D3D3D3"/>
<path d="M253.346 234.304C253.489 234.317 253.633 234.317 253.789 234.304C253.854 234.304 253.854 234.199 253.776 234.199C253.633 234.212 253.502 234.212 253.359 234.199C253.307 234.186 253.281 234.291 253.346 234.304Z" fill="#D3D3D3"/>
<path d="M258.753 238.225C259.704 237.939 257.906 237.443 257.841 237.222C257.776 237.001 257.242 237.574 256.278 237.86C255.326 238.147 253.867 238.629 253.984 239.007C254.089 239.32 257.802 238.512 258.753 238.225Z" fill="white"/>
<path d="M254.844 238.421C254.975 238.395 255.118 238.395 255.248 238.434C255.313 238.447 255.326 238.355 255.274 238.329C255.131 238.29 254.988 238.29 254.844 238.316C254.779 238.329 254.779 238.434 254.844 238.421Z" fill="#D3D3D3"/>
<path d="M261.75 237.952C263.013 237.574 264.251 237.157 265.489 236.701C266.297 236.401 267.091 236.075 267.925 235.841C267.99 235.828 267.964 235.724 267.899 235.737C267.078 235.971 266.27 236.297 265.463 236.597C264.225 237.053 262.987 237.483 261.723 237.847C261.658 237.873 261.684 237.978 261.75 237.952Z" fill="white"/>
<path d="M256.238 253.508C256.746 254.628 257.294 255.736 257.724 256.882C258.141 258.003 258.44 259.162 258.714 260.322C258.727 260.4 258.844 260.361 258.818 260.296C258.544 259.097 258.232 257.899 257.789 256.752C257.359 255.632 256.838 254.55 256.33 253.456C256.304 253.391 256.212 253.443 256.238 253.508Z" fill="white"/>
<path d="M261.906 250.186C262.922 251.606 264.512 252.492 266.258 252.57C266.336 252.57 266.336 252.453 266.258 252.453C264.551 252.374 262.987 251.514 261.997 250.12C261.958 250.068 261.854 250.12 261.906 250.186Z" fill="white"/>
<path d="M266.062 252.57C266.531 255.097 267 257.625 267.469 260.14C267.925 262.563 268.342 264.999 268.902 267.397C269.971 271.983 271.821 276.321 273.97 280.49C275.208 282.888 276.537 285.246 277.866 287.591C277.905 287.656 277.996 287.591 277.97 287.539C275.625 283.396 273.28 279.253 271.456 274.849C270.557 272.686 269.788 270.471 269.228 268.191C268.629 265.781 268.199 263.319 267.743 260.869C267.222 258.094 266.7 255.319 266.192 252.531C266.166 252.466 266.049 252.492 266.062 252.57Z" fill="white"/>
<path d="M273.124 289.506C274.361 289.246 275.573 288.881 276.733 288.386C277.619 288.008 278.465 287.539 279 286.705C279.039 286.64 278.934 286.588 278.895 286.653C278.296 287.578 277.293 288.047 276.303 288.438C275.26 288.842 274.192 289.154 273.098 289.389C273.019 289.402 273.045 289.519 273.124 289.506Z" fill="white"/>
<path d="M231.249 222.734C230.793 221.77 231.067 221.548 231.458 221.366C231.849 221.184 232.187 221.092 232.643 222.07C233.099 223.034 233.516 224.219 232.943 224.493C232.409 224.753 231.705 223.711 231.249 222.734Z" fill="white"/>
<path d="M232.474 222.031C231.94 220.897 232.213 220.676 232.591 220.493C232.982 220.311 233.321 220.233 233.868 221.379C234.402 222.513 234.91 223.894 234.337 224.167C233.803 224.402 233.008 223.164 232.474 222.031Z" fill="white"/>
<path d="M233.49 221.47C232.956 220.337 233.23 220.115 233.607 219.933C233.998 219.751 234.337 219.672 234.884 220.819C235.418 221.952 235.927 223.333 235.353 223.607C234.819 223.855 234.024 222.604 233.49 221.47Z" fill="white"/>
<path d="M234.663 221.027C234.155 219.959 234.428 219.737 234.819 219.555C235.21 219.373 235.549 219.294 236.057 220.363C236.565 221.431 237.034 222.721 236.461 222.995C235.927 223.255 235.171 222.096 234.663 221.027Z" fill="white"/>
<path d="M232.122 221.366C232.474 221.913 232.787 222.473 233.086 223.034C233.125 223.112 233.243 223.047 233.204 222.969C232.904 222.395 232.578 221.835 232.239 221.301C232.187 221.223 232.083 221.288 232.122 221.366Z" fill="#D3D3D3"/>
<path d="M233.073 220.428C233.66 221.301 234.129 222.239 234.493 223.229C234.519 223.307 234.65 223.268 234.624 223.19C234.259 222.187 233.777 221.249 233.191 220.363C233.151 220.285 233.034 220.363 233.073 220.428Z" fill="#D3D3D3"/>
<path d="M234.363 220.05C234.884 220.871 235.262 221.757 235.497 222.708C235.523 222.786 235.64 222.76 235.627 222.669C235.392 221.705 235.002 220.819 234.48 219.985C234.428 219.907 234.311 219.972 234.363 220.05Z" fill="#D3D3D3"/>
<path d="M243.835 215.347C244.643 215.894 246.714 219.659 247.978 220.389C249.711 221.405 256.147 220.988 256.525 221.796C257.19 223.242 249.047 224.78 246.102 223.203C243.301 221.731 241.451 213.744 243.835 215.347Z" fill="#FFC06E"/>
<path d="M120.583 189.55C115.672 195.009 105.34 199.1 89.7053 197.94L89.6793 197.993C89.6662 197.98 89.6402 197.953 89.6271 197.94C89.6011 197.94 89.575 197.94 89.549 197.94L89.575 197.888C70.2665 177.121 75.2304 158.88 86.9823 158.919C87.6077 158.919 88.2591 158.972 88.9236 159.089C98.3694 160.639 100.402 175.349 100.402 175.349C100.402 175.349 101.145 174.906 102.382 174.332C103.112 173.994 103.998 173.603 105.001 173.238C109.444 171.596 116.101 170.189 120.388 174.215C125.013 178.515 125.026 184.599 120.583 189.55Z" fill="#FF6A51"/>
<path d="M78.0706 204.598C77.315 204.846 76.5463 205.119 75.7515 205.067C72.338 204.872 69.7844 207.868 70.3576 209.953C70.4879 210.409 70.2013 210.904 69.8495 211.256C69.5759 211.516 69.2241 211.699 68.9375 211.959C68.2209 212.598 68.0646 213.666 68.5727 214.435C68.7811 214.761 69.1199 215.086 69.0287 215.451C68.9896 215.633 68.8333 215.79 68.703 215.946C68.0906 216.689 67.8822 217.783 68.4554 218.539C68.8202 219.008 69.4065 219.282 69.9928 219.49C72.1295 220.246 74.5268 220.324 76.8068 219.972C79.0869 219.62 81.2627 218.852 83.3603 217.953C84.7804 217.34 86.1875 216.663 87.3862 215.751C87.9073 215.36 88.4024 214.904 88.676 214.357C88.9496 213.796 88.9496 213.106 88.5457 212.624C88.1679 212.181 87.5034 211.959 87.2298 211.464C86.9562 210.995 87.1256 210.409 87.0083 209.888C86.9171 209.419 86.5914 209.002 86.1354 208.754C85.5361 208.416 84.6892 208.363 84.3244 207.816C83.9466 207.269 84.2462 206.474 83.7772 205.992C83.0737 205.289 81.5232 206.044 80.7676 205.38C80.5721 205.21 80.4809 204.976 80.3116 204.794C79.8034 204.272 78.8393 204.351 78.0706 204.598Z" fill="#262F36"/>
<path d="M69.0808 255.553C69.0808 255.553 63.7911 256.218 63.5436 257.482C63.2961 258.771 64.2341 261.325 70.1101 261.078C76.4811 260.804 82.0053 261.82 89.1581 264.66L85.0019 256.648L69.0808 255.553Z" fill="#FFA051"/>
<path d="M87.7901 259.892C87.3341 263.814 86.6045 268.739 85.471 273.403C83.0476 283.383 83.5036 294.197 83.5036 294.197H78.5397C78.5397 294.197 76.0512 277.637 77.5886 271.136C78.4745 267.371 78.1618 262.771 78.7872 257.794C79.2302 254.172 88.3112 255.423 87.7901 259.892Z" fill="white"/>
<path d="M80.7285 253.638C80.7285 253.638 76.429 270.966 71.7778 274.054L67.0223 266.732C67.0223 266.732 68.8333 254.55 69.5889 253.143C70.3446 251.762 80.6894 251.019 80.7285 253.638Z" fill="white"/>
<path d="M89.8356 262.302C89.8356 262.341 89.8226 262.38 89.8226 262.42C89.7183 263.319 89.5099 264.087 89.1711 264.674C89.0018 264.96 88.194 265.468 86.9823 265.807C84.8977 266.38 81.6275 266.393 78.3312 263.801C78.1488 263.657 77.9534 263.501 77.771 263.332C77.1717 262.81 76.5854 262.198 75.9991 261.481C75.9209 261.39 75.8427 261.299 75.7646 261.208C73.5106 258.576 70.8918 257.312 68.6639 256.817C66.1363 256.257 64.1039 256.687 63.6609 257.247C63.8693 256.948 65.3676 254.811 66.5663 252.479L66.6575 252.309C67.1526 251.332 67.6086 250.329 67.8822 249.417C69.2893 244.753 70.4228 242.798 71.439 241.039C71.4521 241.026 71.4521 241.013 71.4651 240.987C72.0644 239.945 72.6116 238.968 73.1588 237.522C73.3933 236.883 73.6279 236.167 73.8754 235.307C75.1131 230.838 85.3537 229.626 85.7446 236.128C85.7837 236.714 85.8358 237.326 85.9139 237.952C86.2527 240.74 86.9432 243.997 87.6598 247.267C87.6728 247.306 87.6728 247.345 87.6859 247.384C88.9106 253.026 90.2004 258.732 89.8356 262.302Z" fill="#FFBF61"/>
<path d="M84.6762 291.969C86.0312 293.363 88.0246 294.118 89.8616 294.887C90.2395 295.043 90.6434 295.213 90.8258 295.604C90.917 295.799 90.93 296.034 90.8127 296.216C90.6434 296.503 90.3046 296.516 90.018 296.503C87.1386 296.451 84.598 296.802 81.393 296.346C80.5201 296.216 79.608 296.307 78.7481 296.112C78.4094 296.034 78.1749 295.721 78.1879 295.382C78.2009 294.796 78.2531 294.171 78.2791 293.532C78.3052 293.141 78.3312 292.737 78.3443 292.333C78.3833 291.161 78.1358 288.92 77.9143 287.487L82.0574 289.311L82.3441 289.337L83.2691 286.106C83.2691 286.145 83.3603 289.506 83.3733 289.558C83.3864 289.676 83.3994 289.793 83.4255 289.897C83.5036 290.223 83.6339 290.536 83.8033 290.822C84.0117 291.2 84.2723 291.539 84.559 291.851C84.598 291.877 84.6371 291.93 84.6762 291.969Z" fill="white"/>
<path d="M90.8127 296.008C91.0342 295.956 91.1645 296.281 90.943 296.346C88.8975 296.868 86.7999 296.907 84.7023 296.802C82.5395 296.685 80.3898 296.503 78.227 296.464C77.9925 296.464 77.9664 296.099 78.1879 296.112C80.2465 296.151 82.292 296.307 84.3505 296.438C86.5133 296.542 88.7021 296.542 90.8127 296.008Z" fill="#353659"/>
<path d="M78.3833 292.75C81.849 294.457 82.2659 296.437 82.2659 296.437L78.5397 296.281C77.5756 295.2 78.3833 292.75 78.3833 292.75Z" fill="#353659"/>
<path d="M87.9203 294.001C88.5848 294.223 89.1711 294.614 90.3437 295.043C91.2687 295.382 91.829 296.164 89.575 296.464C87.321 296.763 84.9107 296.568 84.9107 296.568C84.9107 296.568 86.7999 293.623 87.9203 294.001Z" fill="#353659"/>
<path d="M51.8178 255.358C55.4267 256.726 65.6673 260.804 69.3674 264.1C73.8884 268.139 74.0838 277.52 68.273 272.908C66.879 271.8 65.4849 270.628 64.1429 269.429C59.8695 265.56 54.8665 262.433 51.6614 260.609C51.3748 260.439 50.7494 260.296 49.4986 260.1C47.401 259.788 44.9386 259.814 43.3752 260.1C43.0103 260.166 45.7855 256.765 48.8081 255.319C49.5377 254.967 51.3748 254.824 51.909 254.238C52.1174 253.99 51.6093 255.228 51.8178 255.358Z" fill="white"/>
<path d="M42.6586 260.074C42.5283 260.231 42.2547 260.048 42.385 259.892C43.6357 258.446 45.1861 257.325 46.8017 256.309C48.4694 255.28 50.1631 254.303 51.8047 253.208C51.9741 253.091 52.1956 253.339 52.0132 253.456C50.4628 254.498 48.8472 255.436 47.2577 256.413C45.577 257.443 43.9614 258.576 42.6586 260.074Z" fill="#353659"/>
<path d="M53.6157 256.062C50.1501 256.583 48.8081 255.319 48.8081 255.319L51.6614 253.495C52.9382 253.808 53.6157 256.062 53.6157 256.062Z" fill="#353659"/>
<path d="M45.8506 260.074C45.2513 260.257 44.5998 260.27 43.5054 260.557C42.6455 260.778 41.8117 260.491 43.3361 259.097C44.8604 257.703 46.7496 256.609 46.7496 256.609C46.7496 256.609 46.8929 259.762 45.8506 260.074Z" fill="#353659"/>
<path d="M67.2828 262.576C68.6248 264.257 69.628 266.185 70.2403 268.256C70.2794 268.4 70.5009 268.335 70.4618 268.191C69.8364 266.081 68.8202 264.126 67.4522 262.42C67.361 262.302 67.1916 262.459 67.2828 262.576Z" fill="#FC9171"/>
<path d="M72.4292 219.959C67.8952 222.239 63.257 226.356 60.1431 229.248C58.71 230.577 53.8893 237.743 53.8893 237.743L57.0423 241.339C57.0423 241.339 62.1105 235.463 65.2113 233.144C67.817 231.203 71.1654 229.665 74.7483 228.31C78.5267 226.89 79.5168 220.272 79.5168 220.272C79.5168 220.272 74.0057 219.164 72.4292 219.959Z" fill="#7670E3"/>
<path d="M57.0423 241.339C56.9771 241.456 56.8078 241.456 56.5863 241.352C56.5211 241.326 56.456 241.287 56.3778 241.235C56.0261 241.026 55.5831 240.636 55.1401 240.114C54.7623 239.684 54.4365 239.228 54.2151 238.838C54.1239 238.668 54.0457 238.512 53.9805 238.369C53.9415 238.29 53.9154 238.199 53.9024 238.134C53.8763 238.043 53.8633 237.952 53.8633 237.886C53.8633 237.847 53.8633 237.821 53.8763 237.795C53.8763 237.769 53.8893 237.756 53.9024 237.73C53.9675 237.613 54.1108 237.613 54.3193 237.691C54.4626 237.743 54.6189 237.847 54.8014 237.991C55.101 238.212 55.4528 238.551 55.7915 238.942C55.9739 239.15 56.1563 239.372 56.2997 239.58C56.5211 239.88 56.7035 240.167 56.8338 240.427C56.925 240.609 57.0032 240.779 57.0423 240.922C57.0814 241.118 57.0814 241.248 57.0423 241.339Z" fill="#262F36"/>
<path d="M82.1617 217.966C82.1617 217.966 88.2331 216.115 91.1776 211.79C92.272 210.174 93.9527 201.25 93.9527 201.25L98.7082 200.755C98.7082 200.755 98.7472 211.673 95.9721 215.23C91.8681 220.519 86.7217 227.06 86.7217 227.06L82.1617 217.966Z" fill="#7670E3"/>
<path d="M98.3694 200.52C98.1739 200.455 97.9134 200.403 97.6137 200.377C97.1577 200.338 96.6105 200.338 96.0372 200.39C95.2164 200.468 94.552 200.65 94.2002 200.859C93.9917 200.989 93.8875 201.119 93.9526 201.237C93.9917 201.328 94.109 201.393 94.2783 201.458C94.6171 201.575 95.1643 201.641 95.8027 201.628C96.0633 201.628 96.3369 201.615 96.6235 201.575C97.1577 201.523 97.6137 201.432 97.9785 201.315C98.2 201.25 98.3824 201.172 98.4997 201.093C98.6821 200.976 98.7602 200.859 98.7081 200.742C98.6951 200.729 98.6821 200.703 98.669 200.689C98.6039 200.624 98.4997 200.572 98.3694 200.52Z" fill="#262F36"/>
<path d="M97.0925 194.696C97.0534 194.696 97.0144 194.722 96.9883 194.735C96.7017 194.944 96.5844 195.309 96.5583 195.66C96.5323 195.947 96.5453 196.247 96.5323 196.533C96.5323 196.546 96.5323 196.546 96.5323 196.559C96.2847 196.833 95.9721 197.041 95.6203 197.185C95.3988 197.276 95.1643 197.328 94.9558 197.432C94.578 197.602 94.2913 197.927 94.122 198.305C94.0177 198.54 93.9656 198.8 93.9656 199.048C93.9656 199.23 94.0047 199.413 94.0829 199.569C94.7343 200.637 95.5291 200.52 96.3499 200.181C96.3759 200.168 96.389 200.168 96.415 200.155C96.6496 200.051 96.8841 199.947 97.1186 199.843C97.6137 199.608 98.1088 199.348 98.5908 199.074C99.0599 198.813 99.5289 198.527 99.8937 198.123C100.011 197.993 100.115 197.862 100.206 197.719C100.767 196.833 100.884 195.686 100.806 194.631C100.806 194.553 100.78 194.449 100.701 194.436C100.662 194.423 100.636 194.436 100.597 194.449C100.298 194.579 100.115 194.879 100.011 195.191C99.9067 195.504 99.8676 195.83 99.7504 196.129C99.6983 196.26 99.6462 196.377 99.568 196.494C99.6462 195.791 99.581 195.048 99.4377 194.345C99.4247 194.253 99.3856 194.149 99.2944 194.149C99.2553 194.149 99.2162 194.162 99.1902 194.188C98.8905 194.371 98.7341 194.722 98.669 195.074C98.6429 195.217 98.6299 195.361 98.6039 195.504C98.5387 195.152 98.4475 194.801 98.3433 194.462C98.3172 194.384 98.2651 194.279 98.1739 194.279C98.1348 194.279 98.0957 194.305 98.0697 194.318C97.7831 194.527 97.6658 194.892 97.6397 195.243C97.6137 195.595 97.6397 195.947 97.6006 196.299C97.6006 196.312 97.6006 196.338 97.5876 196.351C97.5355 195.856 97.4182 195.361 97.2749 194.892C97.2358 194.801 97.1837 194.696 97.0925 194.696Z" fill="white"/>
<path d="M94.2784 201.471C94.6171 201.588 95.1643 201.654 95.8027 201.641C96.0633 201.641 96.3369 201.628 96.6235 201.588C97.1577 201.536 97.6137 201.445 97.9785 201.328L97.6267 200.364L97.3792 199.712L93.9787 199.048L94.2132 200.859L94.2784 201.471Z" fill="white"/>
<path d="M95.7506 200.051C95.6985 200.064 95.7115 200.142 95.7767 200.129C96.3499 200.064 96.9232 199.973 97.4443 199.738C97.4965 199.712 97.4574 199.647 97.4053 199.66C96.8711 199.908 96.3108 199.986 95.7506 200.051Z" fill="#FC9171"/>
<path d="M96.5063 196.286C96.4803 196.546 96.5324 196.794 96.6496 197.015C96.6757 197.067 96.7539 197.028 96.7278 196.976C96.6106 196.768 96.5715 196.533 96.5975 196.286C96.5975 196.234 96.5063 196.234 96.5063 196.286Z" fill="#FC9171"/>
<path d="M97.5616 196.208C97.5876 196.468 97.6267 196.729 97.7049 196.976C97.7179 197.028 97.8091 197.002 97.7831 196.95C97.7049 196.703 97.6658 196.455 97.6397 196.208C97.6397 196.155 97.5485 196.155 97.5616 196.208Z" fill="#FC9171"/>
<path d="M98.5518 195.374C98.5648 195.83 98.656 196.286 98.7993 196.716C98.8123 196.768 98.9035 196.742 98.8775 196.69C98.7342 196.26 98.643 195.817 98.6299 195.361C98.6299 195.322 98.5518 195.309 98.5518 195.374Z" fill="#FC9171"/>
<path d="M56.8338 240.453C56.5081 240.74 56.469 240.961 56.3778 241.248C56.3126 241.443 56.2345 241.665 56.026 241.951C55.57 242.59 53.4463 244.714 53.2769 244.518C53.1467 244.375 53.29 243.841 53.5636 243.319C53.6417 243.163 53.6548 243.059 53.6418 242.994C52.5734 243.815 50.9709 244.909 50.7363 244.622C50.5279 244.362 51.4138 243.541 52.3128 242.798L52.2737 242.759C51.0751 243.554 49.3944 244.531 49.1599 244.179C48.8993 243.802 50.2543 242.772 51.4008 241.978L51.3617 241.938C51.3617 241.938 51.3487 241.951 51.3357 241.951C50.2413 242.694 48.4954 243.723 48.2479 243.359C48.2218 243.333 48.2218 243.293 48.2218 243.254C48.2218 242.824 49.4856 241.86 50.4888 241.17C50.8015 240.857 50.6842 240.792 50.5409 240.805C50.4758 240.818 50.3976 240.831 50.3325 240.844C49.6419 240.974 49.0817 240.961 48.9775 240.753C48.7299 240.297 50.58 239.828 51.8438 239.124C52.5082 238.759 53.1076 238.733 53.9935 238.369C54.2411 238.264 54.5016 238.147 54.8013 237.978C55.101 238.199 55.4527 238.538 55.7915 238.929C55.9739 239.137 56.1563 239.359 56.2996 239.567C56.5211 239.906 56.7035 240.193 56.8338 240.453Z" fill="white"/>
<path d="M70.3576 227.568C70.3576 227.568 73.706 235.307 73.1588 236.792C72.6116 238.277 75.061 238.186 77.4713 237.9C79.8816 237.613 85.1973 238.186 85.7445 238.082C86.2917 237.978 86.1224 235.659 86.396 234.421C86.6696 233.183 88.0767 229.652 87.0213 227.776C85.966 225.9 88.6499 224.428 88.6499 224.428L83.3733 217.966L71.5562 221.04L70.3576 227.568Z" fill="#7670E3"/>
<path d="M79.9728 217.08C79.8816 216.663 79.8034 216.259 79.7513 215.933C79.7253 215.803 79.7122 215.686 79.6862 215.581C79.6471 215.334 79.621 215.177 79.621 215.177L77.2107 214.513L77.1065 214.487L77.0544 214.474L76.9371 214.435L75.5952 214.07C75.5952 214.083 75.8297 215.946 75.6082 219.581C75.5561 220.506 76.7547 221.848 79.608 221.301C82.3571 220.767 80.8327 219.503 80.533 218.943C80.3897 218.682 80.2594 218.239 80.1291 217.757C80.064 217.536 80.0119 217.301 79.9728 217.08Z" fill="white"/>
<path d="M77.341 214.63C77.2368 214.565 77.1456 214.513 77.0935 214.487C77.0674 214.474 77.0414 214.461 77.0414 214.461V214.474C77.0414 214.5 77.0544 214.513 77.0544 214.539C77.4322 216.65 79.4126 217.523 80.1162 217.77C80.064 217.549 80.0119 217.314 79.9598 217.093C79.8686 216.676 79.7904 216.272 79.7383 215.946C79.113 215.673 77.9013 214.956 77.341 214.63Z" fill="#FC9171"/>
<path d="M74.5659 214.044C74.5659 214.044 77.9143 217.562 81.393 216.363C84.8847 215.164 82.0574 209.666 79.7513 208.155C77.4453 206.644 70.2013 207.074 74.5659 214.044Z" fill="white"/>
<path d="M76.7808 215.633C76.7286 215.607 76.6896 215.672 76.7286 215.699C77.7709 216.311 78.9566 216.637 80.1552 216.663C80.2073 216.663 80.2203 216.584 80.1682 216.584C78.9826 216.545 77.81 216.233 76.7808 215.633Z" fill="#FC9171"/>
<path d="M80.0771 212.715C80.038 212.754 80.1031 212.806 80.1422 212.767C80.2595 212.65 80.4549 212.585 80.3767 212.389C80.2985 212.194 80.038 211.998 79.8816 211.855C79.6732 211.647 79.4387 211.451 79.2823 211.191C79.1651 210.995 79.152 210.761 79.2432 210.591C79.2563 210.578 79.2432 210.552 79.2302 210.552C79.2041 210.539 79.1781 210.552 79.165 210.578C79.0869 210.748 79.0738 210.956 79.165 211.152C79.2953 211.425 79.5299 211.634 79.7513 211.842C79.8556 211.946 79.9728 212.051 80.0771 212.168C80.1161 212.22 80.2073 212.272 80.2334 212.337C80.3246 212.572 80.1813 212.611 80.0771 212.715Z" fill="#FC9171"/>
<path d="M77.5234 210.969C77.2888 211.165 77.2367 211.477 77.354 211.608C77.4713 211.738 77.6797 211.608 77.9012 211.412C78.1227 211.217 78.2921 211.034 78.1748 210.904C78.0706 210.774 77.7579 210.774 77.5234 210.969Z" fill="#FC9171"/>
<path d="M79.7644 209.64C79.5038 209.797 79.3995 210.096 79.4907 210.24C79.5819 210.383 79.8034 210.292 80.064 210.135C80.3246 209.979 80.507 209.823 80.4158 209.679C80.3376 209.523 80.0249 209.484 79.7644 209.64Z" fill="#FC9171"/>
<path d="M78.2791 211.829C78.1618 211.907 78.1618 212.103 78.2661 212.272C78.3833 212.441 78.5657 212.52 78.683 212.441C78.8002 212.363 78.8002 212.168 78.696 211.998C78.5788 211.816 78.3964 211.751 78.2791 211.829Z" fill="#262F36"/>
<path d="M80.0249 210.643C79.9076 210.722 79.9076 210.917 80.0119 211.086C80.1291 211.256 80.3115 211.334 80.4288 211.256C80.546 211.178 80.546 210.982 80.4418 210.813C80.3376 210.643 80.1552 210.565 80.0249 210.643Z" fill="#262F36"/>
<path d="M76.8069 211.425C76.8199 211.269 76.7417 211.112 76.7287 210.969C76.6766 210.565 77.0023 210.187 77.3671 209.979C77.7319 209.771 78.1358 209.653 78.4485 209.38C79.0738 208.832 79.0217 207.712 78.3573 207.217L76.6114 207.204C75.3346 207.139 74.0057 207.386 72.9503 208.103C71.895 208.819 71.1394 210.031 71.1524 211.321C71.1524 211.842 71.2827 212.35 71.426 212.845C71.6345 213.523 71.882 214.2 72.325 214.761C72.7549 215.321 73.4064 215.751 74.1099 215.79C74.8004 215.829 75.7385 215.673 75.6603 214.995C75.5431 213.953 76.2466 213.523 75.9079 212.923C75.8558 212.819 75.7776 212.715 75.7646 212.598C75.7124 212.038 76.7547 211.972 76.8069 211.425Z" fill="#262F36"/>
<path d="M74.4747 213.028C74.2793 213.588 74.6832 214.252 75.3998 214.5C76.1033 214.748 76.8459 214.5 77.0414 213.94C77.2368 213.379 76.8329 212.715 76.1163 212.467C75.4128 212.207 74.6832 212.467 74.4747 213.028Z" fill="white"/>
<path d="M75.2825 214.422C74.8917 214.292 74.6702 213.966 74.5138 213.601C74.4878 213.549 74.4096 213.575 74.4357 213.627C74.592 213.992 74.8135 214.331 75.2044 214.474C75.6604 214.643 76.2336 214.669 76.6896 214.5C76.7417 214.487 76.7157 214.396 76.6636 214.422C76.2336 214.591 75.7255 214.565 75.2825 214.422Z" fill="#FC9171"/>
<path d="M76.2336 213.392C76.2075 213.275 76.0642 213.197 75.973 213.145C75.9209 213.119 75.8818 213.197 75.9339 213.223C75.9991 213.262 76.1293 213.327 76.1554 213.392C76.1684 213.458 76.1163 213.549 76.1163 213.627C76.1033 213.744 76.1424 213.861 76.2075 213.966C76.2466 214.005 76.3117 213.966 76.2857 213.927C76.2075 213.835 76.1815 213.718 76.2075 213.601C76.2075 213.523 76.2466 213.471 76.2336 213.392Z" fill="#FC9171"/>
<path d="M75.9469 212.376C75.8948 212.363 75.8688 212.454 75.9209 212.454C76.0512 212.48 76.1684 212.52 76.2726 212.598C76.3117 212.624 76.3638 212.559 76.3117 212.52C76.2075 212.441 76.0772 212.389 75.9469 212.376Z" fill="#FC9171"/>
<path d="M72.807 212.65C73.1458 212.116 73.706 211.79 74.2662 211.503C74.7092 211.282 75.2955 211.086 75.5952 210.656C75.9209 210.187 75.517 209.653 75.7906 209.171C76.1424 208.572 76.9371 208.546 77.4974 208.298C77.9403 208.116 78.3312 207.712 78.24 207.191C78.24 207.152 78.1749 207.165 78.1879 207.204C78.3312 208.012 77.3801 208.285 76.8068 208.468C76.403 208.585 75.96 208.754 75.7385 209.145C75.4519 209.64 75.8948 210.227 75.4909 210.696C75.1261 211.125 74.5008 211.321 74.0187 211.568C73.237 211.985 72.325 212.741 72.5074 213.757C72.6116 214.278 73.0155 214.656 73.25 215.112C73.5627 215.699 73.3933 216.337 73.0155 216.858C72.2989 217.822 70.8788 218.304 70.6833 219.62C70.6833 219.659 70.7355 219.672 70.7355 219.633C70.9309 218.356 72.2989 217.874 73.0155 216.949C73.3021 216.585 73.5106 216.129 73.4715 215.673C73.4324 215.151 73.0676 214.761 72.807 214.331C72.4553 213.77 72.4553 213.197 72.807 212.65Z" fill="white"/>
<path d="M72.4292 219.959C72.5725 220.037 77.0153 222.526 80.5852 221.379C83.0216 220.597 82.6828 218.865 82.1747 217.966C80.8979 218.239 79.5559 218.291 78.2009 218.304C76.0121 218.317 74.0578 219.216 72.4292 219.959Z" fill="white"/>
<path d="M79.9207 219.855C79.4907 220.18 78.8132 220.154 78.3051 220.102C77.3149 219.998 76.3638 219.568 75.6342 218.891C75.6082 218.865 75.5691 218.904 75.5951 218.93C76.429 219.698 77.5364 220.154 78.6699 220.18C79.152 220.194 79.6992 220.167 80.064 219.803C80.4809 219.373 80.4809 218.747 80.3767 218.187C80.3767 218.148 80.3115 218.161 80.3246 218.2C80.4288 218.76 80.4288 219.464 79.9207 219.855Z" fill="white"/>
<path d="M79.5299 220.076C79.4777 220.102 79.4647 220.193 79.5038 220.272C79.5429 220.363 79.6211 220.402 79.6732 220.389C79.7253 220.363 79.7383 220.272 79.6992 220.193C79.6602 220.102 79.582 220.05 79.5299 220.076Z" fill="white"/>
<path d="M81.3409 213.21C81.3409 213.366 81.3148 213.575 81.2497 213.718C81.1584 213.927 80.9891 214.109 80.6894 214.213C80.3507 214.331 80.0771 214.291 79.8556 214.187C79.7253 214.135 79.595 214.018 79.4777 213.914C79.4387 213.875 79.4256 213.822 79.4387 213.77C79.4517 213.718 79.5038 213.666 79.569 213.653C79.582 213.653 79.608 213.653 79.6211 213.64C79.6341 213.64 79.6341 213.64 79.6471 213.64C79.6732 213.64 79.6992 213.627 79.7253 213.627C79.7383 213.627 79.7513 213.627 79.7513 213.627C79.8425 213.614 79.9338 213.588 80.025 213.562C80.051 213.549 80.0901 213.549 80.1162 213.536C80.1292 213.536 80.1552 213.523 80.1683 213.523C80.1813 213.523 80.2074 213.51 80.2204 213.51C80.2334 213.51 80.2595 213.497 80.2725 213.497C80.2855 213.497 80.3116 213.484 80.3246 213.484C80.3507 213.471 80.3767 213.471 80.4028 213.458C80.4288 213.445 80.4419 213.445 80.4679 213.432C80.507 213.419 80.5591 213.392 80.5982 213.379C80.6112 213.366 80.6373 213.366 80.6503 213.353C80.7155 213.327 80.7676 213.301 80.8327 213.262C80.8588 213.249 80.8848 213.236 80.9109 213.223C80.937 213.21 80.95 213.197 80.9761 213.184C80.9891 213.184 80.9891 213.171 81.0021 213.171C81.0282 213.158 81.0412 213.145 81.0542 213.132C81.0803 213.119 81.1063 213.106 81.1324 213.08C81.1845 213.041 81.2366 213.054 81.2757 213.08C81.3148 213.119 81.3409 213.158 81.3409 213.21Z" fill="#262F36"/>
<path d="M81.2757 213.093C81.0672 213.366 80.7285 213.705 80.3116 213.77C79.9728 213.822 79.6732 213.809 79.4387 213.77C79.4517 213.718 79.5038 213.666 79.5689 213.653C79.582 213.653 79.608 213.653 79.6211 213.64C79.6341 213.64 79.6341 213.64 79.6471 213.64C79.6732 213.64 79.6992 213.627 79.7253 213.627C79.7383 213.627 79.7513 213.627 79.7513 213.627C79.8425 213.614 79.9338 213.588 80.025 213.562C80.051 213.549 80.0901 213.549 80.1161 213.536C80.1292 213.536 80.1552 213.523 80.1683 213.523C80.1813 213.523 80.2074 213.51 80.2204 213.51C80.2334 213.51 80.2595 213.497 80.2725 213.497C80.2855 213.497 80.3116 213.484 80.3246 213.484C80.3507 213.471 80.3767 213.471 80.4028 213.458C80.4288 213.445 80.4419 213.445 80.4679 213.432C80.507 213.419 80.5591 213.393 80.5982 213.379C80.6112 213.366 80.6373 213.366 80.6503 213.353C80.7155 213.327 80.7676 213.301 80.8327 213.262C80.8588 213.249 80.8848 213.236 80.9109 213.223C80.937 213.21 80.95 213.197 80.976 213.184C80.9891 213.184 80.9891 213.171 81.0021 213.171C81.0282 213.158 81.0412 213.145 81.0542 213.132C81.0803 213.119 81.1063 213.106 81.1324 213.08C81.1845 213.067 81.2366 213.067 81.2757 213.093Z" fill="white"/>
<path d="M81.2497 213.718C81.1585 213.927 80.9891 214.109 80.6894 214.213C80.3507 214.331 80.0771 214.291 79.8556 214.187C79.9859 214.07 80.2334 213.888 80.5722 213.835C80.5722 213.849 80.9761 213.51 81.2497 213.718Z" fill="#E55A4D"/>
<path d="M81.2496 252.622C80.95 252.453 80.6373 252.296 80.3116 252.153C80.7806 251.241 81.4972 250.485 82.318 249.886C83.8814 248.726 85.7576 247.932 87.6728 247.384C87.6597 247.345 87.6598 247.306 87.6467 247.267C85.6664 247.827 83.712 248.661 82.1225 249.886C81.3408 250.485 80.6503 251.228 80.2073 252.101C78.1488 251.176 75.8948 250.72 73.6539 250.72C71.2436 250.72 68.8333 251.254 66.6705 252.296L66.5793 252.466C70.2534 250.655 74.605 250.342 78.5136 251.58C79.0738 251.762 79.621 251.971 80.1682 252.205C80.1031 252.335 80.0379 252.479 79.9858 252.609C79.9337 252.752 79.8816 252.883 79.8425 253.039C79.6731 253.625 79.608 254.277 79.7122 254.876C79.7774 255.254 79.9337 255.462 80.1943 255.593C80.3116 255.658 80.4549 255.71 80.6112 255.749C80.6894 255.775 80.7806 255.788 80.8718 255.814C81.432 255.931 82.1225 255.983 82.5786 255.671C82.774 255.527 82.9303 255.319 83.0085 255.019C83.2951 253.86 82.1225 253.104 81.2496 252.622ZM82.318 255.671C82.1095 255.775 81.862 255.827 81.6014 255.814C81.4581 255.814 81.3017 255.801 81.1324 255.775C80.8197 255.736 80.494 255.645 80.2464 255.488C80.064 255.371 79.9207 255.215 79.8686 255.006C79.6862 254.342 79.8034 253.56 80.0119 252.922C80.0379 252.843 80.064 252.765 80.1031 252.674C80.1552 252.531 80.2204 252.387 80.2855 252.257C80.7415 252.466 81.1845 252.7 81.6144 252.948C82.1747 253.286 82.774 253.729 82.9303 254.407C83.0346 255.019 82.761 255.462 82.318 255.671Z" fill="white"/>
<path d="M75.4519 260.661C76.2988 260.296 77.2108 260.179 78.1228 260.335C78.9436 260.465 79.6471 260.882 80.3768 261.273C81.5754 261.898 82.8913 262.185 84.2333 262.042C84.8717 261.977 85.484 261.82 86.0703 261.573C86.4612 261.403 87.1908 261.143 87.3471 260.7C87.4383 260.452 87.295 260.087 86.9823 260.14C86.6305 260.192 86.5524 260.661 86.5784 260.947C86.7348 262.537 88.6761 262.602 89.8617 262.42C89.9398 262.407 89.9007 262.302 89.8356 262.315C89.0278 262.433 88.1158 262.524 87.4123 262.029C87.0865 261.794 86.8129 261.442 86.7217 261.052C86.6827 260.908 86.6827 260.765 86.7478 260.622C86.7869 260.283 86.9041 260.374 87.0996 260.882C87.0475 260.973 86.7087 261.143 86.6045 261.208C85.3798 261.885 83.9206 262.12 82.5395 261.898C81.862 261.794 81.2106 261.573 80.5982 261.26C80.038 260.973 79.5038 260.635 78.9045 260.426C77.758 260.022 76.5203 260.113 75.4128 260.583C75.3216 260.583 75.3868 260.687 75.4519 260.661Z" fill="white"/>
<path d="M71.4911 241.079C74.6962 241.574 76.9241 244.375 80.1031 245.013C80.7545 245.143 81.445 245.183 82.0965 245.052C82.5916 244.961 83.3994 244.753 83.6469 244.257C83.7772 243.997 83.673 243.658 83.3472 243.606C82.8652 243.541 83.0606 244.192 83.1648 244.427C83.8423 245.977 85.8097 245.626 87.0995 245.287C87.1647 245.274 87.1386 245.156 87.0735 245.183C86.2526 245.404 85.3406 245.665 84.4938 245.404C84.142 245.3 83.8163 245.104 83.5687 244.831C83.3993 244.648 83.2821 244.453 83.2039 244.218C83.1648 244.114 83.1518 244.01 83.1518 243.906C83.5036 244.14 83.5687 244.323 83.3212 244.453C82.8652 244.961 81.7577 245.039 81.1324 245.026C80.3767 245.013 79.6341 244.831 78.9305 244.57C76.3378 243.606 74.3183 241.417 71.5041 240.974C71.452 240.961 71.4129 241.065 71.4911 241.079Z" fill="white"/>
<path d="M70.8788 230.069C71.7517 229.496 72.7419 229.196 73.7972 229.183C73.8754 229.183 73.8754 229.066 73.7972 229.066C72.7289 229.079 71.7257 229.392 70.8267 229.978C70.7615 230.004 70.8137 230.108 70.8788 230.069Z" fill="white"/>
<path d="M86.865 223.959C86.4741 225.04 86.4611 226.043 86.7999 227.138C86.8259 227.203 86.9301 227.177 86.9041 227.112C86.5653 226.043 86.5914 225.053 86.9692 223.998C86.9953 223.92 86.878 223.894 86.865 223.959Z" fill="white"/>
<path d="M76.2075 231.059C77.5104 232.18 79.7513 231.711 81.1324 231.007C81.1975 230.968 81.1454 230.877 81.0803 230.903C79.7513 231.581 77.5495 232.05 76.2987 230.981C76.2336 230.929 76.1554 231.02 76.2075 231.059Z" fill="white"/>
<path opacity="0.8" d="M118.355 185.316C119.723 183.922 122.316 179.296 118.29 177.472C114.264 175.648 115.476 188.247 118.355 185.316Z" fill="white"/>
<path opacity="0.4" d="M197.805 141.344V127.038C197.805 125.11 196.241 123.559 194.326 123.559H182.913C181.206 123.559 180.333 125.605 181.519 126.83C182.144 127.468 183.043 128.119 184.359 128.732C188.984 130.869 195.616 143.441 197.557 141.891C197.726 141.761 197.805 141.552 197.805 141.344Z" fill="white"/>
<path d="M146.967 182.658V209.458C146.967 213.067 149.885 215.985 153.494 215.985H174.887C178.079 215.985 179.721 212.142 177.493 209.862C176.32 208.663 174.627 207.438 172.164 206.305C163.487 202.318 151.071 178.762 147.436 181.655C147.123 181.902 146.967 182.28 146.967 182.658Z" fill="#FFE0C6"/>
</g>
<defs>
<linearGradient id="paint0_linear_3_13" x1="53.3307" y1="76.4025" x2="44.6693" y2="122.598" gradientUnits="userSpaceOnUse">
<stop stop-color="#A3E635"/>
<stop offset="1" stop-color="#65A30D"/>
</linearGradient>
<linearGradient id="paint1_linear_3_13" x1="175" y1="34.5" x2="130" y2="280" gradientUnits="userSpaceOnUse">
<stop stop-color="#A3E635"/>
<stop offset="1" stop-color="#65A30D"/>
</linearGradient>
</defs>
</svg>
